<svg version="1.1" xmlns="http://www.w3.org/2000/svg" xmlns:xlink="http://www.w3.org/1999/xlink" width="668" height="588"><defs/><g><text fill="#eeeeee" stroke="none" font-family="Arial" font-size="24px" font-style="normal" font-weight="normal" text-decoration="none" x="0" y="0">UNREGISTERED</text><text fill="#eeeeee" stroke="none" font-family="Arial" font-size="24px" font-style="normal" font-weight="normal" text-decoration="none" x="0" y="30">UNREGISTERED</text><text fill="#eeeeee" stroke="none" font-family="Arial" font-size="24px" font-style="normal" font-weight="normal" text-decoration="none" x="0" y="60">UNREGISTERED</text><text fill="#eeeeee" stroke="none" font-family="Arial" font-size="24px" font-style="normal" font-weight="normal" text-decoration="none" x="0" y="90">UNREGISTERED</text><text fill="#eeeeee" stroke="none" font-family="Arial" font-size="24px" font-style="normal" font-weight="normal" text-decoration="none" x="0" y="120">UNREGISTERED</text><text fill="#eeeeee" stroke="none" font-family="Arial" font-size="24px" font-style="normal" font-weight="normal" text-decoration="none" x="0" y="150">UNREGISTERED</text><text fill="#eeeeee" stroke="none" font-family="Arial" font-size="24px" font-style="normal" font-weight="normal" text-decoration="none" x="0" y="180">UNREGISTERED</text><text fill="#eeeeee" stroke="none" font-family="Arial" font-size="24px" font-style="normal" font-weight="normal" text-decoration="none" x="0" y="210">UNREGISTERED</text><text fill="#eeeeee" stroke="none" font-family="Arial" font-size="24px" font-style="normal" font-weight="normal" text-decoration="none" x="0" y="240">UNREGISTERED</text><text fill="#eeeeee" stroke="none" font-family="Arial" font-size="24px" font-style="normal" font-weight="normal" text-decoration="none" x="0" y="270">UNREGISTERED</text><text fill="#eeeeee" stroke="none" font-family="Arial" font-size="24px" font-style="normal" font-weight="normal" text-decoration="none" x="0" y="300">UNREGISTERED</text><text fill="#eeeeee" stroke="none" font-family="Arial" font-size="24px" font-style="normal" font-weight="normal" text-decoration="none" x="0" y="330">UNREGISTERED</text><text fill="#eeeeee" stroke="none" font-family="Arial" font-size="24px" font-style="normal" font-weight="normal" text-decoration="none" x="0" y="360">UNREGISTERED</text><text fill="#eeeeee" stroke="none" font-family="Arial" font-size="24px" font-style="normal" font-weight="normal" text-decoration="none" x="0" y="390">UNREGISTERED</text><text fill="#eeeeee" stroke="none" font-family="Arial" font-size="24px" font-style="normal" font-weight="normal" text-decoration="none" x="0" y="420">UNREGISTERED</text><text fill="#eeeeee" stroke="none" font-family="Arial" font-size="24px" font-style="normal" font-weight="normal" text-decoration="none" x="0" y="450">UNREGISTERED</text><text fill="#eeeeee" stroke="none" font-family="Arial" font-size="24px" font-style="normal" font-weight="normal" text-decoration="none" x="0" y="480">UNREGISTERED</text><text fill="#eeeeee" stroke="none" font-family="Arial" font-size="24px" font-style="normal" font-weight="normal" text-decoration="none" x="0" y="510">UNREGISTERED</text><text fill="#eeeeee" stroke="none" font-family="Arial" font-size="24px" font-style="normal" font-weight="normal" text-decoration="none" x="0" y="540">UNREGISTERED</text><text fill="#eeeeee" stroke="none" font-family="Arial" font-size="24px" font-style="normal" font-weight="normal" text-decoration="none" x="0" y="570">UNREGISTERED</text><text fill="#eeeeee" stroke="none" font-family="Arial" font-size="24px" font-style="normal" font-weight="normal" text-decoration="none" x="200" y="0">UNREGISTERED</text><text fill="#eeeeee" stroke="none" font-family="Arial" font-size="24px" font-style="normal" font-weight="normal" text-decoration="none" x="200" y="30">UNREGISTERED</text><text fill="#eeeeee" stroke="none" font-family="Arial" font-size="24px" font-style="normal" font-weight="normal" text-decoration="none" x="200" y="60">UNREGISTERED</text><text fill="#eeeeee" stroke="none" font-family="Arial" font-size="24px" font-style="normal" font-weight="normal" text-decoration="none" x="200" y="90">UNREGISTERED</text><text fill="#eeeeee" stroke="none" font-family="Arial" font-size="24px" font-style="normal" font-weight="normal" text-decoration="none" x="200" y="120">UNREGISTERED</text><text fill="#eeeeee" stroke="none" font-family="Arial" font-size="24px" font-style="normal" font-weight="normal" text-decoration="none" x="200" y="150">UNREGISTERED</text><text fill="#eeeeee" stroke="none" font-family="Arial" font-size="24px" font-style="normal" font-weight="normal" text-decoration="none" x="200" y="180">UNREGISTERED</text><text fill="#eeeeee" stroke="none" font-family="Arial" font-size="24px" font-style="normal" font-weight="normal" text-decoration="none" x="200" y="210">UNREGISTERED</text><text fill="#eeeeee" stroke="none" font-family="Arial" font-size="24px" font-style="normal" font-weight="normal" text-decoration="none" x="200" y="240">UNREGISTERED</text><text fill="#eeeeee" stroke="none" font-family="Arial" font-size="24px" font-style="normal" font-weight="normal" text-decoration="none" x="200" y="270">UNREGISTERED</text><text fill="#eeeeee" stroke="none" font-family="Arial" font-size="24px" font-style="normal" font-weight="normal" text-decoration="none" x="200" y="300">UNREGISTERED</text><text fill="#eeeeee" stroke="none" font-family="Arial" font-size="24px" font-style="normal" font-weight="normal" text-decoration="none" x="200" y="330">UNREGISTERED</text><text fill="#eeeeee" stroke="none" font-family="Arial" font-size="24px" font-style="normal" font-weight="normal" text-decoration="none" x="200" y="360">UNREGISTERED</text><text fill="#eeeeee" stroke="none" font-family="Arial" font-size="24px" font-style="normal" font-weight="normal" text-decoration="none" x="200" y="390">UNREGISTERED</text><text fill="#eeeeee" stroke="none" font-family="Arial" font-size="24px" font-style="normal" font-weight="normal" text-decoration="none" x="200" y="420">UNREGISTERED</text><text fill="#eeeeee" stroke="none" font-family="Arial" font-size="24px" font-style="normal" font-weight="normal" text-decoration="none" x="200" y="450">UNREGISTERED</text><text fill="#eeeeee" stroke="none" font-family="Arial" font-size="24px" font-style="normal" font-weight="normal" text-decoration="none" x="200" y="480">UNREGISTERED</text><text fill="#eeeeee" stroke="none" font-family="Arial" font-size="24px" font-style="normal" font-weight="normal" text-decoration="none" x="200" y="510">UNREGISTERED</text><text fill="#eeeeee" stroke="none" font-family="Arial" font-size="24px" font-style="normal" font-weight="normal" text-decoration="none" x="200" y="540">UNREGISTERED</text><text fill="#eeeeee" stroke="none" font-family="Arial" font-size="24px" font-style="normal" font-weight="normal" text-decoration="none" x="200" y="570">UNREGISTERED</text><text fill="#eeeeee" stroke="none" font-family="Arial" font-size="24px" font-style="normal" font-weight="normal" text-decoration="none" x="400" y="0">UNREGISTERED</text><text fill="#eeeeee" stroke="none" font-family="Arial" font-size="24px" font-style="normal" font-weight="normal" text-decoration="none" x="400" y="30">UNREGISTERED</text><text fill="#eeeeee" stroke="none" font-family="Arial" font-size="24px" font-style="normal" font-weight="normal" text-decoration="none" x="400" y="60">UNREGISTERED</text><text fill="#eeeeee" stroke="none" font-family="Arial" font-size="24px" font-style="normal" font-weight="normal" text-decoration="none" x="400" y="90">UNREGISTERED</text><text fill="#eeeeee" stroke="none" font-family="Arial" font-size="24px" font-style="normal" font-weight="normal" text-decoration="none" x="400" y="120">UNREGISTERED</text><text fill="#eeeeee" stroke="none" font-family="Arial" font-size="24px" font-style="normal" font-weight="normal" text-decoration="none" x="400" y="150">UNREGISTERED</text><text fill="#eeeeee" stroke="none" font-family="Arial" font-size="24px" font-style="normal" font-weight="normal" text-decoration="none" x="400" y="180">UNREGISTERED</text><text fill="#eeeeee" stroke="none" font-family="Arial" font-size="24px" font-style="normal" font-weight="normal" text-decoration="none" x="400" y="210">UNREGISTERED</text><text fill="#eeeeee" stroke="none" font-family="Arial" font-size="24px" font-style="normal" font-weight="normal" text-decoration="none" x="400" y="240">UNREGISTERED</text><text fill="#eeeeee" stroke="none" font-family="Arial" font-size="24px" font-style="normal" font-weight="normal" text-decoration="none" x="400" y="270">UNREGISTERED</text><text fill="#eeeeee" stroke="none" font-family="Arial" font-size="24px" font-style="normal" font-weight="normal" text-decoration="none" x="400" y="300">UNREGISTERED</text><text fill="#eeeeee" stroke="none" font-family="Arial" font-size="24px" font-style="normal" font-weight="normal" text-decoration="none" x="400" y="330">UNREGISTERED</text><text fill="#eeeeee" stroke="none" font-family="Arial" font-size="24px" font-style="normal" font-weight="normal" text-decoration="none" x="400" y="360">UNREGISTERED</text><text fill="#eeeeee" stroke="none" font-family="Arial" font-size="24px" font-style="normal" font-weight="normal" text-decoration="none" x="400" y="390">UNREGISTERED</text><text fill="#eeeeee" stroke="none" font-family="Arial" font-size="24px" font-style="normal" font-weight="normal" text-decoration="none" x="400" y="420">UNREGISTERED</text><text fill="#eeeeee" stroke="none" font-family="Arial" font-size="24px" font-style="normal" font-weight="normal" text-decoration="none" x="400" y="450">UNREGISTERED</text><text fill="#eeeeee" stroke="none" font-family="Arial" font-size="24px" font-style="normal" font-weight="normal" text-decoration="none" x="400" y="480">UNREGISTERED</text><text fill="#eeeeee" stroke="none" font-family="Arial" font-size="24px" font-style="normal" font-weight="normal" text-decoration="none" x="400" y="510">UNREGISTERED</text><text fill="#eeeeee" stroke="none" font-family="Arial" font-size="24px" font-style="normal" font-weight="normal" text-decoration="none" x="400" y="540">UNREGISTERED</text><text fill="#eeeeee" stroke="none" font-family="Arial" font-size="24px" font-style="normal" font-weight="normal" text-decoration="none" x="400" y="570">UNREGISTERED</text><text fill="#eeeeee" stroke="none" font-family="Arial" font-size="24px" font-style="normal" font-weight="normal" text-decoration="none" x="600" y="0">UNREGISTERED</text><text fill="#eeeeee" stroke="none" font-family="Arial" font-size="24px" font-style="normal" font-weight="normal" text-decoration="none" x="600" y="30">UNREGISTERED</text><text fill="#eeeeee" stroke="none" font-family="Arial" font-size="24px" font-style="normal" font-weight="normal" text-decoration="none" x="600" y="60">UNREGISTERED</text><text fill="#eeeeee" stroke="none" font-family="Arial" font-size="24px" font-style="normal" font-weight="normal" text-decoration="none" x="600" y="90">UNREGISTERED</text><text fill="#eeeeee" stroke="none" font-family="Arial" font-size="24px" font-style="normal" font-weight="normal" text-decoration="none" x="600" y="120">UNREGISTERED</text><text fill="#eeeeee" stroke="none" font-family="Arial" font-size="24px" font-style="normal" font-weight="normal" text-decoration="none" x="600" y="150">UNREGISTERED</text><text fill="#eeeeee" stroke="none" font-family="Arial" font-size="24px" font-style="normal" font-weight="normal" text-decoration="none" x="600" y="180">UNREGISTERED</text><text fill="#eeeeee" stroke="none" font-family="Arial" font-size="24px" font-style="normal" font-weight="normal" text-decoration="none" x="600" y="210">UNREGISTERED</text><text fill="#eeeeee" stroke="none" font-family="Arial" font-size="24px" font-style="normal" font-weight="normal" text-decoration="none" x="600" y="240">UNREGISTERED</text><text fill="#eeeeee" stroke="none" font-family="Arial" font-size="24px" font-style="normal" font-weight="normal" text-decoration="none" x="600" y="270">UNREGISTERED</text><text fill="#eeeeee" stroke="none" font-family="Arial" font-size="24px" font-style="normal" font-weight="normal" text-decoration="none" x="600" y="300">UNREGISTERED</text><text fill="#eeeeee" stroke="none" font-family="Arial" font-size="24px" font-style="normal" font-weight="normal" text-decoration="none" x="600" y="330">UNREGISTERED</text><text fill="#eeeeee" stroke="none" font-family="Arial" font-size="24px" font-style="normal" font-weight="normal" text-decoration="none" x="600" y="360">UNREGISTERED</text><text fill="#eeeeee" stroke="none" font-family="Arial" font-size="24px" font-style="normal" font-weight="normal" text-decoration="none" x="600" y="390">UNREGISTERED</text><text fill="#eeeeee" stroke="none" font-family="Arial" font-size="24px" font-style="normal" font-weight="normal" text-decoration="none" x="600" y="420">UNREGISTERED</text><text fill="#eeeeee" stroke="none" font-family="Arial" font-size="24px" font-style="normal" font-weight="normal" text-decoration="none" x="600" y="450">UNREGISTERED</text><text fill="#eeeeee" stroke="none" font-family="Arial" font-size="24px" font-style="normal" font-weight="normal" text-decoration="none" x="600" y="480">UNREGISTERED</text><text fill="#eeeeee" stroke="none" font-family="Arial" font-size="24px" font-style="normal" font-weight="normal" text-decoration="none" x="600" y="510">UNREGISTERED</text><text fill="#eeeeee" stroke="none" font-family="Arial" font-size="24px" font-style="normal" font-weight="normal" text-decoration="none" x="600" y="540">UNREGISTERED</text><text fill="#eeeeee" stroke="none" font-family="Arial" font-size="24px" font-style="normal" font-weight="normal" text-decoration="none" x="600" y="570">UNREGISTERED</text><g transform="translate(-110,-30) scale(1,1)"><rect fill="#ffffff" stroke="none" x="120" y="40" width="296" height="21"/></g><g transform="translate(-110,-30) scale(1,1)"><path fill="none" stroke="#000000" d="M 120 40 L 416 40 L 416 61 L 120 61 L 120 40 Z Z" stroke-miterlimit="10" stroke-width="2"/></g><g transform="translate(-110,-30) scale(1,1)"><path fill="none" stroke="#000000" d="M 120 608 L 120 40 L 416 40 L 416 608" stroke-miterlimit="10" stroke-width="2"/></g><g transform="translate(-110,-30) scale(1,1)"><g><path fill="none" stroke="none"/><text fill="#000000" stroke="none" font-family="Arial" font-size="13px" font-style="normal" font-weight="normal" text-decoration="none" x="248.49365234375" y="57">Gestor</text></g></g><g transform="translate(-110,-30) scale(1,1)"><path fill="#C0C0C0" stroke="none" d="M 151 104.5 C 151 99.2532944 155.2532944 95 160.5 95 C 165.7467056 95 170 99.2532944 170 104.5 C 170 109.7467056 165.7467056 114 160.5 114 C 155.2532944 114 151 109.7467056 151 104.5 Z" opacity="0.2"/></g><g transform="translate(-110,-30) scale(1,1)"><path fill="#000000" stroke="none" d="M 144 97.5 C 144 92.2532944 148.2532944 88 153.5 88 C 158.7467056 88 163 92.2532944 163 97.5 C 163 102.7467056 158.7467056 107 153.5 107 C 148.2532944 107 144 102.7467056 144 97.5 Z"/></g><g transform="translate(-110,-30) scale(1,1)"><path fill="#C0C0C0" stroke="none" d="M 265 79 L 363.8017578125 79 Q 373.8017578125 79 373.8017578125 89 L 373.8017578125 109 Q 373.8017578125 119 363.8017578125 119 L 265 119 Q 255 119 255 109 L 255 89 Q 255 79 265 79 Z" opacity="0.2"/></g><g transform="translate(-110,-30) scale(1,1)"><path fill="#ffffff" stroke="none" d="M 258 72 L 356.8017578125 72 Q 366.8017578125 72 366.8017578125 82 L 366.8017578125 102 Q 366.8017578125 112 356.8017578125 112 L 258 112 Q 248 112 248 102 L 248 82 Q 248 72 258 72 Z"/></g><g transform="translate(-110,-30) scale(1,1)"><path fill="none" stroke="#000000" d="M 258 72 L 356.8017578125 72 Q 366.8017578125 72 366.8017578125 82 L 366.8017578125 102 Q 366.8017578125 112 356.8017578125 112 L 258 112 Q 248 112 248 102 L 248 82 Q 248 72 258 72 Z" stroke-miterlimit="10"/></g><g transform="translate(-110,-30) scale(1,1)"><g><path fill="none" stroke="none"/><text fill="#000000" stroke="none" font-family="Arial" font-size="13px" font-style="normal" font-weight="bold" text-decoration="none" x="256.82275390625" y="91.5">Aprovar Relatorio</text></g></g><g transform="translate(-110,-30) scale(1,1)"><rect fill="#ffffff" stroke="none" x="472" y="40" width="296" height="21"/></g><g transform="translate(-110,-30) scale(1,1)"><path fill="none" stroke="#000000" d="M 472 40 L 768 40 L 768 61 L 472 61 L 472 40 Z Z" stroke-miterlimit="10" stroke-width="2"/></g><g transform="translate(-110,-30) scale(1,1)"><path fill="none" stroke="#000000" d="M 472 608 L 472 40 L 768 40 L 768 608" stroke-miterlimit="10" stroke-width="2"/></g><g transform="translate(-110,-30) scale(1,1)"><g><path fill="none" stroke="none"/><text fill="#000000" stroke="none" font-family="Arial" font-size="13px" font-style="normal" font-weight="normal" text-decoration="none" x="596.52001953125" y="57">Sistema</text></g></g><g transform="translate(-110,-30) scale(1,1)"><path fill="none" stroke="#000000" d="M 164 97 L 247 94" stroke-miterlimit="10"/></g><g transform="translate(-110,-30) scale(1,1)"><path fill="none" stroke="#000000" d="M 236.99600901334045 98.57385661546517 L 247 94 L 236.69190510543356 90.16031516337432" stroke-miterlimit="10"/></g><g transform="translate(-110,-30) scale(1,1)"><path fill="#C0C0C0" stroke="none" d="M 241 167 L 381.734375 167 Q 391.734375 167 391.734375 177 L 391.734375 197 Q 391.734375 207 381.734375 207 L 241 207 Q 231 207 231 197 L 231 177 Q 231 167 241 167 Z" opacity="0.2"/></g><g transform="translate(-110,-30) scale(1,1)"><path fill="#ffffff" stroke="none" d="M 234 160 L 374.734375 160 Q 384.734375 160 384.734375 170 L 384.734375 190 Q 384.734375 200 374.734375 200 L 234 200 Q 224 200 224 190 L 224 170 Q 224 160 234 160 Z"/></g><g transform="translate(-110,-30) scale(1,1)"><path fill="none" stroke="#000000" d="M 234 160 L 374.734375 160 Q 384.734375 160 384.734375 170 L 384.734375 190 Q 384.734375 200 374.734375 200 L 234 200 Q 224 200 224 190 L 224 170 Q 224 160 234 160 Z" stroke-miterlimit="10"/></g><g transform="translate(-110,-30) scale(1,1)"><g><path fill="none" stroke="none"/><text fill="#000000" stroke="none" font-family="Arial" font-size="13px" font-style="normal" font-weight="bold" text-decoration="none" x="233.917724609375" y="179.5">Verificar Nivel Subtancia</text></g></g><g transform="translate(-110,-30) scale(1,1)"><path fill="none" stroke="#000000" d="M 306 113 L 305 159" stroke-miterlimit="10"/></g><g transform="translate(-110,-30) scale(1,1)"><path fill="none" stroke="#000000" d="M 301.0123521078249 148.74823604017186 L 305 159 L 309.42939894957703 148.9312153193404" stroke-miterlimit="10"/></g><g transform="translate(-110,-30) scale(1,1)"><path fill="#C0C0C0" stroke="none" d="M 553 167 L 729.0908203125 167 Q 739.0908203125 167 739.0908203125 177 L 739.0908203125 197 Q 739.0908203125 207 729.0908203125 207 L 553 207 Q 543 207 543 197 L 543 177 Q 543 167 553 167 Z" opacity="0.2"/></g><g transform="translate(-110,-30) scale(1,1)"><path fill="#ffffff" stroke="none" d="M 546 160 L 722.0908203125 160 Q 732.0908203125 160 732.0908203125 170 L 732.0908203125 190 Q 732.0908203125 200 722.0908203125 200 L 546 200 Q 536 200 536 190 L 536 170 Q 536 160 546 160 Z"/></g><g transform="translate(-110,-30) scale(1,1)"><path fill="none" stroke="#000000" d="M 546 160 L 722.0908203125 160 Q 732.0908203125 160 732.0908203125 170 L 732.0908203125 190 Q 732.0908203125 200 722.0908203125 200 L 546 200 Q 536 200 536 190 L 536 170 Q 536 160 546 160 Z" stroke-miterlimit="10"/></g><g transform="translate(-110,-30) scale(1,1)"><g><path fill="none" stroke="none"/><text fill="#000000" stroke="none" font-family="Arial" font-size="13px" font-style="normal" font-weight="bold" text-decoration="none" x="546.6064453125" y="179.5">Nivel Substancia Componente</text></g></g><g transform="translate(-110,-30) scale(1,1)"><path fill="none" stroke="#000000" d="M 386 180 L 535 180" stroke-miterlimit="10"/></g><g transform="translate(-110,-30) scale(1,1)"><path fill="none" stroke="#000000" d="M 524.8373251423759 184.209517756016 L 535 180 L 524.8373251423758 175.790482243984" stroke-miterlimit="10"/></g><g transform="translate(-110,-30) scale(1,1)"><path fill="#C0C0C0" stroke="none" d="M 249 271 L 355.05712890625 271 Q 365.05712890625 271 365.05712890625 281 L 365.05712890625 301 Q 365.05712890625 311 355.05712890625 311 L 249 311 Q 239 311 239 301 L 239 281 Q 239 271 249 271 Z" opacity="0.2"/></g><g transform="translate(-110,-30) scale(1,1)"><path fill="#ffffff" stroke="none" d="M 242 264 L 348.05712890625 264 Q 358.05712890625 264 358.05712890625 274 L 358.05712890625 294 Q 358.05712890625 304 348.05712890625 304 L 242 304 Q 232 304 232 294 L 232 274 Q 232 264 242 264 Z"/></g><g transform="translate(-110,-30) scale(1,1)"><path fill="none" stroke="#000000" d="M 242 264 L 348.05712890625 264 Q 358.05712890625 264 358.05712890625 274 L 358.05712890625 294 Q 358.05712890625 304 348.05712890625 304 L 242 304 Q 232 304 232 294 L 232 274 Q 232 264 242 264 Z" stroke-miterlimit="10"/></g><g transform="translate(-110,-30) scale(1,1)"><g><path fill="none" stroke="none"/><text fill="#000000" stroke="none" font-family="Arial" font-size="13px" font-style="normal" font-weight="bold" text-decoration="none" x="240.832275390625" y="283.5">Aprova Verificação</text></g></g><g transform="translate(-110,-30) scale(1,1)"><path fill="none" stroke="#000000" d="M 566 201 L 359 264" stroke-miterlimit="10"/></g><g transform="translate(-110,-30) scale(1,1)"><path fill="none" stroke="#000000" d="M 367.49671560007255 257.01388348139795 L 359 264 L 369.9480155830877 265.06815485416195" stroke-miterlimit="10"/></g><g transform="translate(-110,-30) scale(1,1)"><path fill="#C0C0C0" stroke="none" d="M 257 383 L 342.82080078125 383 Q 352.82080078125 383 352.82080078125 393 L 352.82080078125 413 Q 352.82080078125 423 342.82080078125 423 L 257 423 Q 247 423 247 413 L 247 393 Q 247 383 257 383 Z" opacity="0.2"/></g><g transform="translate(-110,-30) scale(1,1)"><path fill="#ffffff" stroke="none" d="M 250 376 L 335.82080078125 376 Q 345.82080078125 376 345.82080078125 386 L 345.82080078125 406 Q 345.82080078125 416 335.82080078125 416 L 250 416 Q 240 416 240 406 L 240 386 Q 240 376 250 376 Z"/></g><g transform="translate(-110,-30) scale(1,1)"><path fill="none" stroke="#000000" d="M 250 376 L 335.82080078125 376 Q 345.82080078125 376 345.82080078125 386 L 345.82080078125 406 Q 345.82080078125 416 335.82080078125 416 L 250 416 Q 240 416 240 406 L 240 386 Q 240 376 250 376 Z" stroke-miterlimit="10"/></g><g transform="translate(-110,-30) scale(1,1)"><g><path fill="none" stroke="none"/><text fill="#000000" stroke="none" font-family="Arial" font-size="13px" font-style="normal" font-weight="bold" text-decoration="none" x="247.50244140625" y="395.5">Valida Entregas</text></g></g><g transform="translate(-110,-30) scale(1,1)"><path fill="none" stroke="#000000" d="M 294 305 L 293 375" stroke-miterlimit="10"/></g><g transform="translate(-110,-30) scale(1,1)"><path fill="none" stroke="#000000" d="M 288.93607797814394 364.7782321587568 L 293 375 L 297.3542545363899 364.8984918238746" stroke-miterlimit="10"/></g><g transform="translate(-110,-30) scale(1,1)"><path fill="#C0C0C0" stroke="none" d="M 287 515.5 C 287 508.59644 292.59644 503 299.5 503 C 306.40356 503 312 508.59644 312 515.5 C 312 522.40356 306.40356 528 299.5 528 C 292.59644 528 287 522.40356 287 515.5 Z" opacity="0.2"/></g><g transform="translate(-110,-30) scale(1,1)"><path fill="none" stroke="#000000" d="M 280 508.5 C 280 501.59644 285.59644 496 292.5 496 C 299.40356 496 305 501.59644 305 508.5 C 305 515.40356 299.40356 521 292.5 521 C 285.59644 521 280 515.40356 280 508.5 Z" stroke-miterlimit="10"/></g><g transform="translate(-110,-30) scale(1,1)"><path fill="#000000" stroke="none" d="M 285 508.5 C 285 504.357864 288.357864 501 292.5 501 C 296.642136 501 300 504.357864 300 508.5 C 300 512.642136 296.642136 516 292.5 516 C 288.357864 516 285 512.642136 285 508.5 Z"/></g><g transform="translate(-110,-30) scale(1,1)"><path fill="none" stroke="#000000" d="M 292 417 L 292 495" stroke-miterlimit="10"/></g><g transform="translate(-110,-30) scale(1,1)"><path fill="none" stroke="#000000" d="M 287.790482243984 484.83732514237585 L 292 495 L 296.209517756016 484.83732514237585" stroke-miterlimit="10"/></g></g></svg>