<svg version="1.1" xmlns="http://www.w3.org/2000/svg" xmlns:xlink="http://www.w3.org/1999/xlink" width="617" height="637"><defs/><g><text fill="#eeeeee" stroke="none" font-family="Arial" font-size="24px" font-style="normal" font-weight="normal" text-decoration="none" x="0" y="0">UNREGISTERED</text><text fill="#eeeeee" stroke="none" font-family="Arial" font-size="24px" font-style="normal" font-weight="normal" text-decoration="none" x="0" y="30">UNREGISTERED</text><text fill="#eeeeee" stroke="none" font-family="Arial" font-size="24px" font-style="normal" font-weight="normal" text-decoration="none" x="0" y="60">UNREGISTERED</text><text fill="#eeeeee" stroke="none" font-family="Arial" font-size="24px" font-style="normal" font-weight="normal" text-decoration="none" x="0" y="90">UNREGISTERED</text><text fill="#eeeeee" stroke="none" font-family="Arial" font-size="24px" font-style="normal" font-weight="normal" text-decoration="none" x="0" y="120">UNREGISTERED</text><text fill="#eeeeee" stroke="none" font-family="Arial" font-size="24px" font-style="normal" font-weight="normal" text-decoration="none" x="0" y="150">UNREGISTERED</text><text fill="#eeeeee" stroke="none" font-family="Arial" font-size="24px" font-style="normal" font-weight="normal" text-decoration="none" x="0" y="180">UNREGISTERED</text><text fill="#eeeeee" stroke="none" font-family="Arial" font-size="24px" font-style="normal" font-weight="normal" text-decoration="none" x="0" y="210">UNREGISTERED</text><text fill="#eeeeee" stroke="none" font-family="Arial" font-size="24px" font-style="normal" font-weight="normal" text-decoration="none" x="0" y="240">UNREGISTERED</text><text fill="#eeeeee" stroke="none" font-family="Arial" font-size="24px" font-style="normal" font-weight="normal" text-decoration="none" x="0" y="270">UNREGISTERED</text><text fill="#eeeeee" stroke="none" font-family="Arial" font-size="24px" font-style="normal" font-weight="normal" text-decoration="none" x="0" y="300">UNREGISTERED</text><text fill="#eeeeee" stroke="none" font-family="Arial" font-size="24px" font-style="normal" font-weight="normal" text-decoration="none" x="0" y="330">UNREGISTERED</text><text fill="#eeeeee" stroke="none" font-family="Arial" font-size="24px" font-style="normal" font-weight="normal" text-decoration="none" x="0" y="360">UNREGISTERED</text><text fill="#eeeeee" stroke="none" font-family="Arial" font-size="24px" font-style="normal" font-weight="normal" text-decoration="none" x="0" y="390">UNREGISTERED</text><text fill="#eeeeee" stroke="none" font-family="Arial" font-size="24px" font-style="normal" font-weight="normal" text-decoration="none" x="0" y="420">UNREGISTERED</text><text fill="#eeeeee" stroke="none" font-family="Arial" font-size="24px" font-style="normal" font-weight="normal" text-decoration="none" x="0" y="450">UNREGISTERED</text><text fill="#eeeeee" stroke="none" font-family="Arial" font-size="24px" font-style="normal" font-weight="normal" text-decoration="none" x="0" y="480">UNREGISTERED</text><text fill="#eeeeee" stroke="none" font-family="Arial" font-size="24px" font-style="normal" font-weight="normal" text-decoration="none" x="0" y="510">UNREGISTERED</text><text fill="#eeeeee" stroke="none" font-family="Arial" font-size="24px" font-style="normal" font-weight="normal" text-decoration="none" x="0" y="540">UNREGISTERED</text><text fill="#eeeeee" stroke="none" font-family="Arial" font-size="24px" font-style="normal" font-weight="normal" text-decoration="none" x="0" y="570">UNREGISTERED</text><text fill="#eeeeee" stroke="none" font-family="Arial" font-size="24px" font-style="normal" font-weight="normal" text-decoration="none" x="0" y="600">UNREGISTERED</text><text fill="#eeeeee" stroke="none" font-family="Arial" font-size="24px" font-style="normal" font-weight="normal" text-decoration="none" x="0" y="630">UNREGISTERED</text><text fill="#eeeeee" stroke="none" font-family="Arial" font-size="24px" font-style="normal" font-weight="normal" text-decoration="none" x="200" y="0">UNREGISTERED</text><text fill="#eeeeee" stroke="none" font-family="Arial" font-size="24px" font-style="normal" font-weight="normal" text-decoration="none" x="200" y="30">UNREGISTERED</text><text fill="#eeeeee" stroke="none" font-family="Arial" font-size="24px" font-style="normal" font-weight="normal" text-decoration="none" x="200" y="60">UNREGISTERED</text><text fill="#eeeeee" stroke="none" font-family="Arial" font-size="24px" font-style="normal" font-weight="normal" text-decoration="none" x="200" y="90">UNREGISTERED</text><text fill="#eeeeee" stroke="none" font-family="Arial" font-size="24px" font-style="normal" font-weight="normal" text-decoration="none" x="200" y="120">UNREGISTERED</text><text fill="#eeeeee" stroke="none" font-family="Arial" font-size="24px" font-style="normal" font-weight="normal" text-decoration="none" x="200" y="150">UNREGISTERED</text><text fill="#eeeeee" stroke="none" font-family="Arial" font-size="24px" font-style="normal" font-weight="normal" text-decoration="none" x="200" y="180">UNREGISTERED</text><text fill="#eeeeee" stroke="none" font-family="Arial" font-size="24px" font-style="normal" font-weight="normal" text-decoration="none" x="200" y="210">UNREGISTERED</text><text fill="#eeeeee" stroke="none" font-family="Arial" font-size="24px" font-style="normal" font-weight="normal" text-decoration="none" x="200" y="240">UNREGISTERED</text><text fill="#eeeeee" stroke="none" font-family="Arial" font-size="24px" font-style="normal" font-weight="normal" text-decoration="none" x="200" y="270">UNREGISTERED</text><text fill="#eeeeee" stroke="none" font-family="Arial" font-size="24px" font-style="normal" font-weight="normal" text-decoration="none" x="200" y="300">UNREGISTERED</text><text fill="#eeeeee" stroke="none" font-family="Arial" font-size="24px" font-style="normal" font-weight="normal" text-decoration="none" x="200" y="330">UNREGISTERED</text><text fill="#eeeeee" stroke="none" font-family="Arial" font-size="24px" font-style="normal" font-weight="normal" text-decoration="none" x="200" y="360">UNREGISTERED</text><text fill="#eeeeee" stroke="none" font-family="Arial" font-size="24px" font-style="normal" font-weight="normal" text-decoration="none" x="200" y="390">UNREGISTERED</text><text fill="#eeeeee" stroke="none" font-family="Arial" font-size="24px" font-style="normal" font-weight="normal" text-decoration="none" x="200" y="420">UNREGISTERED</text><text fill="#eeeeee" stroke="none" font-family="Arial" font-size="24px" font-style="normal" font-weight="normal" text-decoration="none" x="200" y="450">UNREGISTERED</text><text fill="#eeeeee" stroke="none" font-family="Arial" font-size="24px" font-style="normal" font-weight="normal" text-decoration="none" x="200" y="480">UNREGISTERED</text><text fill="#eeeeee" stroke="none" font-family="Arial" font-size="24px" font-style="normal" font-weight="normal" text-decoration="none" x="200" y="510">UNREGISTERED</text><text fill="#eeeeee" stroke="none" font-family="Arial" font-size="24px" font-style="normal" font-weight="normal" text-decoration="none" x="200" y="540">UNREGISTERED</text><text fill="#eeeeee" stroke="none" font-family="Arial" font-size="24px" font-style="normal" font-weight="normal" text-decoration="none" x="200" y="570">UNREGISTERED</text><text fill="#eeeeee" stroke="none" font-family="Arial" font-size="24px" font-style="normal" font-weight="normal" text-decoration="none" x="200" y="600">UNREGISTERED</text><text fill="#eeeeee" stroke="none" font-family="Arial" font-size="24px" font-style="normal" font-weight="normal" text-decoration="none" x="200" y="630">UNREGISTERED</text><text fill="#eeeeee" stroke="none" font-family="Arial" font-size="24px" font-style="normal" font-weight="normal" text-decoration="none" x="400" y="0">UNREGISTERED</text><text fill="#eeeeee" stroke="none" font-family="Arial" font-size="24px" font-style="normal" font-weight="normal" text-decoration="none" x="400" y="30">UNREGISTERED</text><text fill="#eeeeee" stroke="none" font-family="Arial" font-size="24px" font-style="normal" font-weight="normal" text-decoration="none" x="400" y="60">UNREGISTERED</text><text fill="#eeeeee" stroke="none" font-family="Arial" font-size="24px" font-style="normal" font-weight="normal" text-decoration="none" x="400" y="90">UNREGISTERED</text><text fill="#eeeeee" stroke="none" font-family="Arial" font-size="24px" font-style="normal" font-weight="normal" text-decoration="none" x="400" y="120">UNREGISTERED</text><text fill="#eeeeee" stroke="none" font-family="Arial" font-size="24px" font-style="normal" font-weight="normal" text-decoration="none" x="400" y="150">UNREGISTERED</text><text fill="#eeeeee" stroke="none" font-family="Arial" font-size="24px" font-style="normal" font-weight="normal" text-decoration="none" x="400" y="180">UNREGISTERED</text><text fill="#eeeeee" stroke="none" font-family="Arial" font-size="24px" font-style="normal" font-weight="normal" text-decoration="none" x="400" y="210">UNREGISTERED</text><text fill="#eeeeee" stroke="none" font-family="Arial" font-size="24px" font-style="normal" font-weight="normal" text-decoration="none" x="400" y="240">UNREGISTERED</text><text fill="#eeeeee" stroke="none" font-family="Arial" font-size="24px" font-style="normal" font-weight="normal" text-decoration="none" x="400" y="270">UNREGISTERED</text><text fill="#eeeeee" stroke="none" font-family="Arial" font-size="24px" font-style="normal" font-weight="normal" text-decoration="none" x="400" y="300">UNREGISTERED</text><text fill="#eeeeee" stroke="none" font-family="Arial" font-size="24px" font-style="normal" font-weight="normal" text-decoration="none" x="400" y="330">UNREGISTERED</text><text fill="#eeeeee" stroke="none" font-family="Arial" font-size="24px" font-style="normal" font-weight="normal" text-decoration="none" x="400" y="360">UNREGISTERED</text><text fill="#eeeeee" stroke="none" font-family="Arial" font-size="24px" font-style="normal" font-weight="normal" text-decoration="none" x="400" y="390">UNREGISTERED</text><text fill="#eeeeee" stroke="none" font-family="Arial" font-size="24px" font-style="normal" font-weight="normal" text-decoration="none" x="400" y="420">UNREGISTERED</text><text fill="#eeeeee" stroke="none" font-family="Arial" font-size="24px" font-style="normal" font-weight="normal" text-decoration="none" x="400" y="450">UNREGISTERED</text><text fill="#eeeeee" stroke="none" font-family="Arial" font-size="24px" font-style="normal" font-weight="normal" text-decoration="none" x="400" y="480">UNREGISTERED</text><text fill="#eeeeee" stroke="none" font-family="Arial" font-size="24px" font-style="normal" font-weight="normal" text-decoration="none" x="400" y="510">UNREGISTERED</text><text fill="#eeeeee" stroke="none" font-family="Arial" font-size="24px" font-style="normal" font-weight="normal" text-decoration="none" x="400" y="540">UNREGISTERED</text><text fill="#eeeeee" stroke="none" font-family="Arial" font-size="24px" font-style="normal" font-weight="normal" text-decoration="none" x="400" y="570">UNREGISTERED</text><text fill="#eeeeee" stroke="none" font-family="Arial" font-size="24px" font-style="normal" font-weight="normal" text-decoration="none" x="400" y="600">UNREGISTERED</text><text fill="#eeeeee" stroke="none" font-family="Arial" font-size="24px" font-style="normal" font-weight="normal" text-decoration="none" x="400" y="630">UNREGISTERED</text><text fill="#eeeeee" stroke="none" font-family="Arial" font-size="24px" font-style="normal" font-weight="normal" text-decoration="none" x="600" y="0">UNREGISTERED</text><text fill="#eeeeee" stroke="none" font-family="Arial" font-size="24px" font-style="normal" font-weight="normal" text-decoration="none" x="600" y="30">UNREGISTERED</text><text fill="#eeeeee" stroke="none" font-family="Arial" font-size="24px" font-style="normal" font-weight="normal" text-decoration="none" x="600" y="60">UNREGISTERED</text><text fill="#eeeeee" stroke="none" font-family="Arial" font-size="24px" font-style="normal" font-weight="normal" text-decoration="none" x="600" y="90">UNREGISTERED</text><text fill="#eeeeee" stroke="none" font-family="Arial" font-size="24px" font-style="normal" font-weight="normal" text-decoration="none" x="600" y="120">UNREGISTERED</text><text fill="#eeeeee" stroke="none" font-family="Arial" font-size="24px" font-style="normal" font-weight="normal" text-decoration="none" x="600" y="150">UNREGISTERED</text><text fill="#eeeeee" stroke="none" font-family="Arial" font-size="24px" font-style="normal" font-weight="normal" text-decoration="none" x="600" y="180">UNREGISTERED</text><text fill="#eeeeee" stroke="none" font-family="Arial" font-size="24px" font-style="normal" font-weight="normal" text-decoration="none" x="600" y="210">UNREGISTERED</text><text fill="#eeeeee" stroke="none" font-family="Arial" font-size="24px" font-style="normal" font-weight="normal" text-decoration="none" x="600" y="240">UNREGISTERED</text><text fill="#eeeeee" stroke="none" font-family="Arial" font-size="24px" font-style="normal" font-weight="normal" text-decoration="none" x="600" y="270">UNREGISTERED</text><text fill="#eeeeee" stroke="none" font-family="Arial" font-size="24px" font-style="normal" font-weight="normal" text-decoration="none" x="600" y="300">UNREGISTERED</text><text fill="#eeeeee" stroke="none" font-family="Arial" font-size="24px" font-style="normal" font-weight="normal" text-decoration="none" x="600" y="330">UNREGISTERED</text><text fill="#eeeeee" stroke="none" font-family="Arial" font-size="24px" font-style="normal" font-weight="normal" text-decoration="none" x="600" y="360">UNREGISTERED</text><text fill="#eeeeee" stroke="none" font-family="Arial" font-size="24px" font-style="normal" font-weight="normal" text-decoration="none" x="600" y="390">UNREGISTERED</text><text fill="#eeeeee" stroke="none" font-family="Arial" font-size="24px" font-style="normal" font-weight="normal" text-decoration="none" x="600" y="420">UNREGISTERED</text><text fill="#eeeeee" stroke="none" font-family="Arial" font-size="24px" font-style="normal" font-weight="normal" text-decoration="none" x="600" y="450">UNREGISTERED</text><text fill="#eeeeee" stroke="none" font-family="Arial" font-size="24px" font-style="normal" font-weight="normal" text-decoration="none" x="600" y="480">UNREGISTERED</text><text fill="#eeeeee" stroke="none" font-family="Arial" font-size="24px" font-style="normal" font-weight="normal" text-decoration="none" x="600" y="510">UNREGISTERED</text><text fill="#eeeeee" stroke="none" font-family="Arial" font-size="24px" font-style="normal" font-weight="normal" text-decoration="none" x="600" y="540">UNREGISTERED</text><text fill="#eeeeee" stroke="none" font-family="Arial" font-size="24px" font-style="normal" font-weight="normal" text-decoration="none" x="600" y="570">UNREGISTERED</text><text fill="#eeeeee" stroke="none" font-family="Arial" font-size="24px" font-style="normal" font-weight="normal" text-decoration="none" x="600" y="600">UNREGISTERED</text><text fill="#eeeeee" stroke="none" font-family="Arial" font-size="24px" font-style="normal" font-weight="normal" text-decoration="none" x="600" y="630">UNREGISTERED</text><g transform="translate(-334,-174) scale(1,1)"><path fill="#C0C0C0" stroke="none" d="M 695 240.5 C 695 235.2532944 699.2532944 231 704.5 231 C 709.7467056 231 714 235.2532944 714 240.5 C 714 245.7467056 709.7467056 250 704.5 250 C 699.2532944 250 695 245.7467056 695 240.5 Z" opacity="0.2"/></g><g transform="translate(-334,-174) scale(1,1)"><path fill="#000000" stroke="none" d="M 688 233.5 C 688 228.2532944 692.2532944 224 697.5 224 C 702.7467056 224 707 228.2532944 707 233.5 C 707 238.7467056 702.7467056 243 697.5 243 C 692.2532944 243 688 238.7467056 688 233.5 Z"/></g><g transform="translate(-334,-174) scale(1,1)"><path fill="#ffffff" stroke="none" d="M 872 184 L 930 184 L 940 194 L 940 222 L 872 222 L 872 184"/></g><g transform="translate(-334,-174) scale(1,1)"><path fill="none" stroke="#000000" d="M 872 184 L 930 184 L 940 194 L 940 222 L 872 222 L 872 184 L 872 184" stroke-miterlimit="10"/></g><g transform="translate(-334,-174) scale(1,1)"><path fill="none" stroke="#000000" d="M 930 184 L 930 194 L 940 194 L 930 184" stroke-miterlimit="10"/></g><g transform="translate(-334,-174) scale(1,1)"><g><path fill="none" stroke="none"/><text fill="#000000" stroke="none" font-family="Arial" font-size="13px" font-style="normal" font-weight="normal" text-decoration="none" x="877" y="202">Estado</text><text fill="#000000" stroke="none" font-family="Arial" font-size="13px" font-style="normal" font-weight="normal" text-decoration="none" x="877" y="215">Inicial</text></g></g><g transform="translate(-334,-174) scale(1,1)"><path fill="none" stroke="#000000" d="M 708 231 L 871 208" stroke-miterlimit="10" stroke-dasharray="3"/></g><g transform="translate(-334,-174) scale(1,1)"><path fill="#C0C0C0" stroke="none" d="M 537 463 L 663.3125 463 Q 673.3125 463 673.3125 473 L 673.3125 500 Q 673.3125 510 663.3125 510 L 537 510 Q 527 510 527 500 L 527 473 Q 527 463 537 463 Z" opacity="0.2"/></g><g transform="translate(-334,-174) scale(1,1)"><path fill="#ffffff" stroke="none" d="M 530 456 L 656.3125 456 Q 666.3125 456 666.3125 466 L 666.3125 493 Q 666.3125 503 656.3125 503 L 530 503 Q 520 503 520 493 L 520 466 Q 520 456 530 456 Z"/></g><g transform="translate(-334,-174) scale(1,1)"><path fill="none" stroke="#000000" d="M 530 456 L 656.3125 456 Q 666.3125 456 666.3125 466 L 666.3125 493 Q 666.3125 503 656.3125 503 L 530 503 Q 520 503 520 493 L 520 466 Q 520 456 530 456 Z" stroke-miterlimit="10"/></g><g transform="translate(-334,-174) scale(1,1)"><path fill="none" stroke="#000000" d="M 520 481 L 666.3125 481" stroke-miterlimit="10"/></g><g transform="translate(-334,-174) scale(1,1)"><g><path fill="none" stroke="none"/><text fill="#000000" stroke="none" font-family="Arial" font-size="13px" font-style="normal" font-weight="bold" text-decoration="none" x="545.5869140625" y="475.5">Validar Relatório</text></g></g><g transform="translate(-334,-174) scale(1,1)"><g><path fill="none" stroke="none"/><text fill="#000000" stroke="none" font-family="Arial" font-size="13px" font-style="normal" font-weight="normal" text-decoration="none" x="525" y="498.5">do/aprovaRelatorio</text></g></g><g transform="translate(-334,-174) scale(1,1)"><path fill="#C0C0C0" stroke="none" d="M 689 303 L 823.24072265625 303 Q 833.24072265625 303 833.24072265625 313 L 833.24072265625 340 Q 833.24072265625 350 823.24072265625 350 L 689 350 Q 679 350 679 340 L 679 313 Q 679 303 689 303 Z" opacity="0.2"/></g><g transform="translate(-334,-174) scale(1,1)"><path fill="#ffffff" stroke="none" d="M 682 296 L 816.24072265625 296 Q 826.24072265625 296 826.24072265625 306 L 826.24072265625 333 Q 826.24072265625 343 816.24072265625 343 L 682 343 Q 672 343 672 333 L 672 306 Q 672 296 682 296 Z"/></g><g transform="translate(-334,-174) scale(1,1)"><path fill="none" stroke="#000000" d="M 682 296 L 816.24072265625 296 Q 826.24072265625 296 826.24072265625 306 L 826.24072265625 333 Q 826.24072265625 343 816.24072265625 343 L 682 343 Q 672 343 672 333 L 672 306 Q 672 296 682 296 Z" stroke-miterlimit="10"/></g><g transform="translate(-334,-174) scale(1,1)"><path fill="none" stroke="#000000" d="M 672 321 L 826.24072265625 321" stroke-miterlimit="10"/></g><g transform="translate(-334,-174) scale(1,1)"><g><path fill="none" stroke="none"/><text fill="#000000" stroke="none" font-family="Arial" font-size="13px" font-style="normal" font-weight="bold" text-decoration="none" x="681.5654296875" y="315.5">Verificar Nivel Entregas</text></g></g><g transform="translate(-334,-174) scale(1,1)"><g><path fill="none" stroke="none"/><text fill="#000000" stroke="none" font-family="Arial" font-size="13px" font-style="normal" font-weight="normal" text-decoration="none" x="677" y="338.5">do/verificarNivelEntregas</text></g></g><g transform="translate(-334,-174) scale(1,1)"><path fill="#C0C0C0" stroke="none" d="M 586 599 L 649 599 Q 652 599 652 602 L 652 601 Q 652 604 649 604 L 586 604 Q 583 604 583 601 L 583 602 Q 583 599 586 599 Z" opacity="0.2"/></g><g transform="translate(-334,-174) scale(1,1)"><path fill="#000000" stroke="none" d="M 579 592 L 642 592 Q 645 592 645 595 L 645 595 Q 645 598 642 598 L 579 598 Q 576 598 576 595 L 576 595 Q 576 592 579 592 Z"/></g><g transform="translate(-334,-174) scale(1,1)"><path fill="#C0C0C0" stroke="none" d="M 465 639 L 542.841796875 639 Q 552.841796875 639 552.841796875 649 L 552.841796875 668 Q 552.841796875 678 542.841796875 678 L 465 678 Q 455 678 455 668 L 455 649 Q 455 639 465 639 Z" opacity="0.2"/></g><g transform="translate(-334,-174) scale(1,1)"><path fill="#ffffff" stroke="none" d="M 458 632 L 535.841796875 632 Q 545.841796875 632 545.841796875 642 L 545.841796875 661 Q 545.841796875 671 535.841796875 671 L 458 671 Q 448 671 448 661 L 448 642 Q 448 632 458 632 Z"/></g><g transform="translate(-334,-174) scale(1,1)"><path fill="none" stroke="#000000" d="M 458 632 L 535.841796875 632 Q 545.841796875 632 545.841796875 642 L 545.841796875 661 Q 545.841796875 671 535.841796875 671 L 458 671 Q 448 671 448 661 L 448 642 Q 448 632 458 632 Z" stroke-miterlimit="10"/></g><g transform="translate(-334,-174) scale(1,1)"><g><path fill="none" stroke="none"/><text fill="#000000" stroke="none" font-family="Arial" font-size="13px" font-style="normal" font-weight="bold" text-decoration="none" x="455.365966796875" y="651.5">Não Aprovado</text></g></g><g transform="translate(-334,-174) scale(1,1)"><path fill="none" stroke="#000000" d="M 602 598 L 536 631" stroke-miterlimit="10"/></g><g transform="translate(-334,-174) scale(1,1)"><path fill="none" stroke="#000000" d="M 543.2072191549614 622.6900064950472 L 536 631 L 546.9723262969391 630.2202207790025" stroke-miterlimit="10"/></g><g transform="translate(-334,-174) scale(1,1)"><path fill="#C0C0C0" stroke="none" d="M 657 639 L 706.6708984375 639 Q 716.6708984375 639 716.6708984375 649 L 716.6708984375 668 Q 716.6708984375 678 706.6708984375 678 L 657 678 Q 647 678 647 668 L 647 649 Q 647 639 657 639 Z" opacity="0.2"/></g><g transform="translate(-334,-174) scale(1,1)"><path fill="#ffffff" stroke="none" d="M 650 632 L 699.6708984375 632 Q 709.6708984375 632 709.6708984375 642 L 709.6708984375 661 Q 709.6708984375 671 699.6708984375 671 L 650 671 Q 640 671 640 661 L 640 642 Q 640 632 650 632 Z"/></g><g transform="translate(-334,-174) scale(1,1)"><path fill="none" stroke="#000000" d="M 650 632 L 699.6708984375 632 Q 709.6708984375 632 709.6708984375 642 L 709.6708984375 661 Q 709.6708984375 671 699.6708984375 671 L 650 671 Q 640 671 640 661 L 640 642 Q 640 632 650 632 Z" stroke-miterlimit="10"/></g><g transform="translate(-334,-174) scale(1,1)"><g><path fill="none" stroke="none"/><text fill="#000000" stroke="none" font-family="Arial" font-size="13px" font-style="normal" font-weight="bold" text-decoration="none" x="647.010498046875" y="651.5">Aprovado</text></g></g><g transform="translate(-334,-174) scale(1,1)"><path fill="none" stroke="#000000" d="M 614 598 L 652 631" stroke-miterlimit="10"/></g><g transform="translate(-334,-174) scale(1,1)"><path fill="none" stroke="#000000" d="M 641.5667192925538 627.5147950304707 L 652 631 L 647.0869685295212 621.1581443939629" stroke-miterlimit="10"/></g><g transform="translate(-334,-174) scale(1,1)"><path fill="#C0C0C0" stroke="none" d="M 361 303 L 516.1943359375 303 Q 526.1943359375 303 526.1943359375 313 L 526.1943359375 340 Q 526.1943359375 350 516.1943359375 350 L 361 350 Q 351 350 351 340 L 351 313 Q 351 303 361 303 Z" opacity="0.2"/></g><g transform="translate(-334,-174) scale(1,1)"><path fill="#ffffff" stroke="none" d="M 354 296 L 509.1943359375 296 Q 519.1943359375 296 519.1943359375 306 L 519.1943359375 333 Q 519.1943359375 343 509.1943359375 343 L 354 343 Q 344 343 344 333 L 344 306 Q 344 296 354 296 Z"/></g><g transform="translate(-334,-174) scale(1,1)"><path fill="none" stroke="#000000" d="M 354 296 L 509.1943359375 296 Q 519.1943359375 296 519.1943359375 306 L 519.1943359375 333 Q 519.1943359375 343 509.1943359375 343 L 354 343 Q 344 343 344 333 L 344 306 Q 344 296 354 296 Z" stroke-miterlimit="10"/></g><g transform="translate(-334,-174) scale(1,1)"><path fill="none" stroke="#000000" d="M 344 321 L 519.1943359375 321" stroke-miterlimit="10"/></g><g transform="translate(-334,-174) scale(1,1)"><g><path fill="none" stroke="none"/><text fill="#000000" stroke="none" font-family="Arial" font-size="13px" font-style="normal" font-weight="bold" text-decoration="none" x="354.647705078125" y="315.5">Verificar Nivel Substâncias</text></g></g><g transform="translate(-334,-174) scale(1,1)"><g><path fill="none" stroke="none"/><text fill="#000000" stroke="none" font-family="Arial" font-size="13px" font-style="normal" font-weight="normal" text-decoration="none" x="349" y="338.5">do/verificarNivelSubstancias</text></g></g><g transform="translate(-334,-174) scale(1,1)"><path fill="none" stroke="#000000" d="M 687 236 L 505 295" stroke-miterlimit="10"/></g><g transform="translate(-334,-174) scale(1,1)"><path fill="none" stroke="#000000" d="M 513.3692714882502 287.861702250819 L 505 295 L 515.9655073675075 295.87042987835844" stroke-miterlimit="10"/></g><g transform="translate(-334,-174) scale(1,1)"><g><path fill="none" stroke="none"/><text fill="#000000" stroke="none" font-family="Arial" font-size="13px" font-style="normal" font-weight="normal" text-decoration="none" x="535.5" y="243.5">verificar</text></g></g><g transform="translate(-334,-174) scale(1,1)"><path fill="none" stroke="#000000" d="M 704 244 L 734 295" stroke-miterlimit="10"/></g><g transform="translate(-334,-174) scale(1,1)"><path fill="none" stroke="#000000" d="M 725.2189919242404 288.3747530481162 L 734 295 L 732.4756466906891 284.10613259726404" stroke-miterlimit="10"/></g><g transform="translate(-334,-174) scale(1,1)"><g><path fill="none" stroke="none"/><text fill="#000000" stroke="none" font-family="Arial" font-size="13px" font-style="normal" font-weight="normal" text-decoration="none" x="751.5" y="268.5">verificar</text></g></g><g transform="translate(-334,-174) scale(1,1)"><path fill="none" stroke="#000000" d="M 456 344 L 569 455" stroke-miterlimit="10"/></g><g transform="translate(-334,-174) scale(1,1)"><path fill="none" stroke="#000000" d="M 558.8001467173384 450.881384575834 L 569 455 L 564.6999154722495 444.8753136811948" stroke-miterlimit="10"/></g><g transform="translate(-334,-174) scale(1,1)"><g><path fill="none" stroke="none"/><text fill="#000000" stroke="none" font-family="Arial" font-size="13px" font-style="normal" font-weight="normal" text-decoration="none" x="502.5" y="394.5">validar</text></g></g><g transform="translate(-334,-174) scale(1,1)"><path fill="none" stroke="#000000" d="M 725 344 L 616 455" stroke-miterlimit="10"/></g><g transform="translate(-334,-174) scale(1,1)"><path fill="none" stroke="#000000" d="M 620.1169596839786 444.799478299592 L 616 455 L 626.1239881764119 450.6982720444139" stroke-miterlimit="10"/></g><g transform="translate(-334,-174) scale(1,1)"><g><path fill="none" stroke="none"/><text fill="#000000" stroke="none" font-family="Arial" font-size="13px" font-style="normal" font-weight="normal" text-decoration="none" x="660.5" y="415.5">validar</text></g></g><g transform="translate(-334,-174) scale(1,1)"><path fill="none" stroke="#000000" d="M 597 504 L 610 591" stroke-miterlimit="10"/></g><g transform="translate(-334,-174) scale(1,1)"><path fill="none" stroke="#000000" d="M 604.3348183347804 581.5710171969581 L 610 591 L 612.6614093075917 580.3268139481472" stroke-miterlimit="10"/></g><g transform="translate(-334,-174) scale(1,1)"><path fill="#C0C0C0" stroke="none" d="M 607 795.5 C 607 788.59644 612.59644 783 619.5 783 C 626.40356 783 632 788.59644 632 795.5 C 632 802.40356 626.40356 808 619.5 808 C 612.59644 808 607 802.40356 607 795.5 Z" opacity="0.2"/></g><g transform="translate(-334,-174) scale(1,1)"><path fill="none" stroke="#000000" d="M 600 788.5 C 600 781.59644 605.59644 776 612.5 776 C 619.40356 776 625 781.59644 625 788.5 C 625 795.40356 619.40356 801 612.5 801 C 605.59644 801 600 795.40356 600 788.5 Z" stroke-miterlimit="10"/></g><g transform="translate(-334,-174) scale(1,1)"><path fill="#000000" stroke="none" d="M 605 788.5 C 605 784.357864 608.357864 781 612.5 781 C 616.642136 781 620 784.357864 620 788.5 C 620 792.642136 616.642136 796 612.5 796 C 608.357864 796 605 792.642136 605 788.5 Z"/></g><g transform="translate(-334,-174) scale(1,1)"><path fill="none" stroke="#000000" d="M 514 672 L 601 775" stroke-miterlimit="10"/></g><g transform="translate(-334,-174) scale(1,1)"><path fill="none" stroke="#000000" d="M 591.2264039298882 769.9525432286848 L 601 775 L 597.6581148529887 764.5199330315029" stroke-miterlimit="10"/></g><g transform="translate(-334,-174) scale(1,1)"><path fill="none" stroke="#000000" d="M 664 672 L 618 775" stroke-miterlimit="10"/></g><g transform="translate(-334,-174) scale(1,1)"><path fill="none" stroke="#000000" d="M 618.3005422808047 764.0041064784417 L 618 775 L 625.9877863590893 767.4372446104911" stroke-miterlimit="10"/></g></g></svg>