<svg version="1.1" xmlns="http://www.w3.org/2000/svg" xmlns:xlink="http://www.w3.org/1999/xlink" width="1205" height="421"><defs/><g><text fill="#eeeeee" stroke="none" font-family="Arial" font-size="24px" font-style="normal" font-weight="normal" text-decoration="none" x="0" y="0">UNREGISTERED</text><text fill="#eeeeee" stroke="none" font-family="Arial" font-size="24px" font-style="normal" font-weight="normal" text-decoration="none" x="0" y="30">UNREGISTERED</text><text fill="#eeeeee" stroke="none" font-family="Arial" font-size="24px" font-style="normal" font-weight="normal" text-decoration="none" x="0" y="60">UNREGISTERED</text><text fill="#eeeeee" stroke="none" font-family="Arial" font-size="24px" font-style="normal" font-weight="normal" text-decoration="none" x="0" y="90">UNREGISTERED</text><text fill="#eeeeee" stroke="none" font-family="Arial" font-size="24px" font-style="normal" font-weight="normal" text-decoration="none" x="0" y="120">UNREGISTERED</text><text fill="#eeeeee" stroke="none" font-family="Arial" font-size="24px" font-style="normal" font-weight="normal" text-decoration="none" x="0" y="150">UNREGISTERED</text><text fill="#eeeeee" stroke="none" font-family="Arial" font-size="24px" font-style="normal" font-weight="normal" text-decoration="none" x="0" y="180">UNREGISTERED</text><text fill="#eeeeee" stroke="none" font-family="Arial" font-size="24px" font-style="normal" font-weight="normal" text-decoration="none" x="0" y="210">UNREGISTERED</text><text fill="#eeeeee" stroke="none" font-family="Arial" font-size="24px" font-style="normal" font-weight="normal" text-decoration="none" x="0" y="240">UNREGISTERED</text><text fill="#eeeeee" stroke="none" font-family="Arial" font-size="24px" font-style="normal" font-weight="normal" text-decoration="none" x="0" y="270">UNREGISTERED</text><text fill="#eeeeee" stroke="none" font-family="Arial" font-size="24px" font-style="normal" font-weight="normal" text-decoration="none" x="0" y="300">UNREGISTERED</text><text fill="#eeeeee" stroke="none" font-family="Arial" font-size="24px" font-style="normal" font-weight="normal" text-decoration="none" x="0" y="330">UNREGISTERED</text><text fill="#eeeeee" stroke="none" font-family="Arial" font-size="24px" font-style="normal" font-weight="normal" text-decoration="none" x="0" y="360">UNREGISTERED</text><text fill="#eeeeee" stroke="none" font-family="Arial" font-size="24px" font-style="normal" font-weight="normal" text-decoration="none" x="0" y="390">UNREGISTERED</text><text fill="#eeeeee" stroke="none" font-family="Arial" font-size="24px" font-style="normal" font-weight="normal" text-decoration="none" x="0" y="420">UNREGISTERED</text><text fill="#eeeeee" stroke="none" font-family="Arial" font-size="24px" font-style="normal" font-weight="normal" text-decoration="none" x="200" y="0">UNREGISTERED</text><text fill="#eeeeee" stroke="none" font-family="Arial" font-size="24px" font-style="normal" font-weight="normal" text-decoration="none" x="200" y="30">UNREGISTERED</text><text fill="#eeeeee" stroke="none" font-family="Arial" font-size="24px" font-style="normal" font-weight="normal" text-decoration="none" x="200" y="60">UNREGISTERED</text><text fill="#eeeeee" stroke="none" font-family="Arial" font-size="24px" font-style="normal" font-weight="normal" text-decoration="none" x="200" y="90">UNREGISTERED</text><text fill="#eeeeee" stroke="none" font-family="Arial" font-size="24px" font-style="normal" font-weight="normal" text-decoration="none" x="200" y="120">UNREGISTERED</text><text fill="#eeeeee" stroke="none" font-family="Arial" font-size="24px" font-style="normal" font-weight="normal" text-decoration="none" x="200" y="150">UNREGISTERED</text><text fill="#eeeeee" stroke="none" font-family="Arial" font-size="24px" font-style="normal" font-weight="normal" text-decoration="none" x="200" y="180">UNREGISTERED</text><text fill="#eeeeee" stroke="none" font-family="Arial" font-size="24px" font-style="normal" font-weight="normal" text-decoration="none" x="200" y="210">UNREGISTERED</text><text fill="#eeeeee" stroke="none" font-family="Arial" font-size="24px" font-style="normal" font-weight="normal" text-decoration="none" x="200" y="240">UNREGISTERED</text><text fill="#eeeeee" stroke="none" font-family="Arial" font-size="24px" font-style="normal" font-weight="normal" text-decoration="none" x="200" y="270">UNREGISTERED</text><text fill="#eeeeee" stroke="none" font-family="Arial" font-size="24px" font-style="normal" font-weight="normal" text-decoration="none" x="200" y="300">UNREGISTERED</text><text fill="#eeeeee" stroke="none" font-family="Arial" font-size="24px" font-style="normal" font-weight="normal" text-decoration="none" x="200" y="330">UNREGISTERED</text><text fill="#eeeeee" stroke="none" font-family="Arial" font-size="24px" font-style="normal" font-weight="normal" text-decoration="none" x="200" y="360">UNREGISTERED</text><text fill="#eeeeee" stroke="none" font-family="Arial" font-size="24px" font-style="normal" font-weight="normal" text-decoration="none" x="200" y="390">UNREGISTERED</text><text fill="#eeeeee" stroke="none" font-family="Arial" font-size="24px" font-style="normal" font-weight="normal" text-decoration="none" x="200" y="420">UNREGISTERED</text><text fill="#eeeeee" stroke="none" font-family="Arial" font-size="24px" font-style="normal" font-weight="normal" text-decoration="none" x="400" y="0">UNREGISTERED</text><text fill="#eeeeee" stroke="none" font-family="Arial" font-size="24px" font-style="normal" font-weight="normal" text-decoration="none" x="400" y="30">UNREGISTERED</text><text fill="#eeeeee" stroke="none" font-family="Arial" font-size="24px" font-style="normal" font-weight="normal" text-decoration="none" x="400" y="60">UNREGISTERED</text><text fill="#eeeeee" stroke="none" font-family="Arial" font-size="24px" font-style="normal" font-weight="normal" text-decoration="none" x="400" y="90">UNREGISTERED</text><text fill="#eeeeee" stroke="none" font-family="Arial" font-size="24px" font-style="normal" font-weight="normal" text-decoration="none" x="400" y="120">UNREGISTERED</text><text fill="#eeeeee" stroke="none" font-family="Arial" font-size="24px" font-style="normal" font-weight="normal" text-decoration="none" x="400" y="150">UNREGISTERED</text><text fill="#eeeeee" stroke="none" font-family="Arial" font-size="24px" font-style="normal" font-weight="normal" text-decoration="none" x="400" y="180">UNREGISTERED</text><text fill="#eeeeee" stroke="none" font-family="Arial" font-size="24px" font-style="normal" font-weight="normal" text-decoration="none" x="400" y="210">UNREGISTERED</text><text fill="#eeeeee" stroke="none" font-family="Arial" font-size="24px" font-style="normal" font-weight="normal" text-decoration="none" x="400" y="240">UNREGISTERED</text><text fill="#eeeeee" stroke="none" font-family="Arial" font-size="24px" font-style="normal" font-weight="normal" text-decoration="none" x="400" y="270">UNREGISTERED</text><text fill="#eeeeee" stroke="none" font-family="Arial" font-size="24px" font-style="normal" font-weight="normal" text-decoration="none" x="400" y="300">UNREGISTERED</text><text fill="#eeeeee" stroke="none" font-family="Arial" font-size="24px" font-style="normal" font-weight="normal" text-decoration="none" x="400" y="330">UNREGISTERED</text><text fill="#eeeeee" stroke="none" font-family="Arial" font-size="24px" font-style="normal" font-weight="normal" text-decoration="none" x="400" y="360">UNREGISTERED</text><text fill="#eeeeee" stroke="none" font-family="Arial" font-size="24px" font-style="normal" font-weight="normal" text-decoration="none" x="400" y="390">UNREGISTERED</text><text fill="#eeeeee" stroke="none" font-family="Arial" font-size="24px" font-style="normal" font-weight="normal" text-decoration="none" x="400" y="420">UNREGISTERED</text><text fill="#eeeeee" stroke="none" font-family="Arial" font-size="24px" font-style="normal" font-weight="normal" text-decoration="none" x="600" y="0">UNREGISTERED</text><text fill="#eeeeee" stroke="none" font-family="Arial" font-size="24px" font-style="normal" font-weight="normal" text-decoration="none" x="600" y="30">UNREGISTERED</text><text fill="#eeeeee" stroke="none" font-family="Arial" font-size="24px" font-style="normal" font-weight="normal" text-decoration="none" x="600" y="60">UNREGISTERED</text><text fill="#eeeeee" stroke="none" font-family="Arial" font-size="24px" font-style="normal" font-weight="normal" text-decoration="none" x="600" y="90">UNREGISTERED</text><text fill="#eeeeee" stroke="none" font-family="Arial" font-size="24px" font-style="normal" font-weight="normal" text-decoration="none" x="600" y="120">UNREGISTERED</text><text fill="#eeeeee" stroke="none" font-family="Arial" font-size="24px" font-style="normal" font-weight="normal" text-decoration="none" x="600" y="150">UNREGISTERED</text><text fill="#eeeeee" stroke="none" font-family="Arial" font-size="24px" font-style="normal" font-weight="normal" text-decoration="none" x="600" y="180">UNREGISTERED</text><text fill="#eeeeee" stroke="none" font-family="Arial" font-size="24px" font-style="normal" font-weight="normal" text-decoration="none" x="600" y="210">UNREGISTERED</text><text fill="#eeeeee" stroke="none" font-family="Arial" font-size="24px" font-style="normal" font-weight="normal" text-decoration="none" x="600" y="240">UNREGISTERED</text><text fill="#eeeeee" stroke="none" font-family="Arial" font-size="24px" font-style="normal" font-weight="normal" text-decoration="none" x="600" y="270">UNREGISTERED</text><text fill="#eeeeee" stroke="none" font-family="Arial" font-size="24px" font-style="normal" font-weight="normal" text-decoration="none" x="600" y="300">UNREGISTERED</text><text fill="#eeeeee" stroke="none" font-family="Arial" font-size="24px" font-style="normal" font-weight="normal" text-decoration="none" x="600" y="330">UNREGISTERED</text><text fill="#eeeeee" stroke="none" font-family="Arial" font-size="24px" font-style="normal" font-weight="normal" text-decoration="none" x="600" y="360">UNREGISTERED</text><text fill="#eeeeee" stroke="none" font-family="Arial" font-size="24px" font-style="normal" font-weight="normal" text-decoration="none" x="600" y="390">UNREGISTERED</text><text fill="#eeeeee" stroke="none" font-family="Arial" font-size="24px" font-style="normal" font-weight="normal" text-decoration="none" x="600" y="420">UNREGISTERED</text><text fill="#eeeeee" stroke="none" font-family="Arial" font-size="24px" font-style="normal" font-weight="normal" text-decoration="none" x="800" y="0">UNREGISTERED</text><text fill="#eeeeee" stroke="none" font-family="Arial" font-size="24px" font-style="normal" font-weight="normal" text-decoration="none" x="800" y="30">UNREGISTERED</text><text fill="#eeeeee" stroke="none" font-family="Arial" font-size="24px" font-style="normal" font-weight="normal" text-decoration="none" x="800" y="60">UNREGISTERED</text><text fill="#eeeeee" stroke="none" font-family="Arial" font-size="24px" font-style="normal" font-weight="normal" text-decoration="none" x="800" y="90">UNREGISTERED</text><text fill="#eeeeee" stroke="none" font-family="Arial" font-size="24px" font-style="normal" font-weight="normal" text-decoration="none" x="800" y="120">UNREGISTERED</text><text fill="#eeeeee" stroke="none" font-family="Arial" font-size="24px" font-style="normal" font-weight="normal" text-decoration="none" x="800" y="150">UNREGISTERED</text><text fill="#eeeeee" stroke="none" font-family="Arial" font-size="24px" font-style="normal" font-weight="normal" text-decoration="none" x="800" y="180">UNREGISTERED</text><text fill="#eeeeee" stroke="none" font-family="Arial" font-size="24px" font-style="normal" font-weight="normal" text-decoration="none" x="800" y="210">UNREGISTERED</text><text fill="#eeeeee" stroke="none" font-family="Arial" font-size="24px" font-style="normal" font-weight="normal" text-decoration="none" x="800" y="240">UNREGISTERED</text><text fill="#eeeeee" stroke="none" font-family="Arial" font-size="24px" font-style="normal" font-weight="normal" text-decoration="none" x="800" y="270">UNREGISTERED</text><text fill="#eeeeee" stroke="none" font-family="Arial" font-size="24px" font-style="normal" font-weight="normal" text-decoration="none" x="800" y="300">UNREGISTERED</text><text fill="#eeeeee" stroke="none" font-family="Arial" font-size="24px" font-style="normal" font-weight="normal" text-decoration="none" x="800" y="330">UNREGISTERED</text><text fill="#eeeeee" stroke="none" font-family="Arial" font-size="24px" font-style="normal" font-weight="normal" text-decoration="none" x="800" y="360">UNREGISTERED</text><text fill="#eeeeee" stroke="none" font-family="Arial" font-size="24px" font-style="normal" font-weight="normal" text-decoration="none" x="800" y="390">UNREGISTERED</text><text fill="#eeeeee" stroke="none" font-family="Arial" font-size="24px" font-style="normal" font-weight="normal" text-decoration="none" x="800" y="420">UNREGISTERED</text><text fill="#eeeeee" stroke="none" font-family="Arial" font-size="24px" font-style="normal" font-weight="normal" text-decoration="none" x="1000" y="0">UNREGISTERED</text><text fill="#eeeeee" stroke="none" font-family="Arial" font-size="24px" font-style="normal" font-weight="normal" text-decoration="none" x="1000" y="30">UNREGISTERED</text><text fill="#eeeeee" stroke="none" font-family="Arial" font-size="24px" font-style="normal" font-weight="normal" text-decoration="none" x="1000" y="60">UNREGISTERED</text><text fill="#eeeeee" stroke="none" font-family="Arial" font-size="24px" font-style="normal" font-weight="normal" text-decoration="none" x="1000" y="90">UNREGISTERED</text><text fill="#eeeeee" stroke="none" font-family="Arial" font-size="24px" font-style="normal" font-weight="normal" text-decoration="none" x="1000" y="120">UNREGISTERED</text><text fill="#eeeeee" stroke="none" font-family="Arial" font-size="24px" font-style="normal" font-weight="normal" text-decoration="none" x="1000" y="150">UNREGISTERED</text><text fill="#eeeeee" stroke="none" font-family="Arial" font-size="24px" font-style="normal" font-weight="normal" text-decoration="none" x="1000" y="180">UNREGISTERED</text><text fill="#eeeeee" stroke="none" font-family="Arial" font-size="24px" font-style="normal" font-weight="normal" text-decoration="none" x="1000" y="210">UNREGISTERED</text><text fill="#eeeeee" stroke="none" font-family="Arial" font-size="24px" font-style="normal" font-weight="normal" text-decoration="none" x="1000" y="240">UNREGISTERED</text><text fill="#eeeeee" stroke="none" font-family="Arial" font-size="24px" font-style="normal" font-weight="normal" text-decoration="none" x="1000" y="270">UNREGISTERED</text><text fill="#eeeeee" stroke="none" font-family="Arial" font-size="24px" font-style="normal" font-weight="normal" text-decoration="none" x="1000" y="300">UNREGISTERED</text><text fill="#eeeeee" stroke="none" font-family="Arial" font-size="24px" font-style="normal" font-weight="normal" text-decoration="none" x="1000" y="330">UNREGISTERED</text><text fill="#eeeeee" stroke="none" font-family="Arial" font-size="24px" font-style="normal" font-weight="normal" text-decoration="none" x="1000" y="360">UNREGISTERED</text><text fill="#eeeeee" stroke="none" font-family="Arial" font-size="24px" font-style="normal" font-weight="normal" text-decoration="none" x="1000" y="390">UNREGISTERED</text><text fill="#eeeeee" stroke="none" font-family="Arial" font-size="24px" font-style="normal" font-weight="normal" text-decoration="none" x="1000" y="420">UNREGISTERED</text><text fill="#eeeeee" stroke="none" font-family="Arial" font-size="24px" font-style="normal" font-weight="normal" text-decoration="none" x="1200" y="0">UNREGISTERED</text><text fill="#eeeeee" stroke="none" font-family="Arial" font-size="24px" font-style="normal" font-weight="normal" text-decoration="none" x="1200" y="30">UNREGISTERED</text><text fill="#eeeeee" stroke="none" font-family="Arial" font-size="24px" font-style="normal" font-weight="normal" text-decoration="none" x="1200" y="60">UNREGISTERED</text><text fill="#eeeeee" stroke="none" font-family="Arial" font-size="24px" font-style="normal" font-weight="normal" text-decoration="none" x="1200" y="90">UNREGISTERED</text><text fill="#eeeeee" stroke="none" font-family="Arial" font-size="24px" font-style="normal" font-weight="normal" text-decoration="none" x="1200" y="120">UNREGISTERED</text><text fill="#eeeeee" stroke="none" font-family="Arial" font-size="24px" font-style="normal" font-weight="normal" text-decoration="none" x="1200" y="150">UNREGISTERED</text><text fill="#eeeeee" stroke="none" font-family="Arial" font-size="24px" font-style="normal" font-weight="normal" text-decoration="none" x="1200" y="180">UNREGISTERED</text><text fill="#eeeeee" stroke="none" font-family="Arial" font-size="24px" font-style="normal" font-weight="normal" text-decoration="none" x="1200" y="210">UNREGISTERED</text><text fill="#eeeeee" stroke="none" font-family="Arial" font-size="24px" font-style="normal" font-weight="normal" text-decoration="none" x="1200" y="240">UNREGISTERED</text><text fill="#eeeeee" stroke="none" font-family="Arial" font-size="24px" font-style="normal" font-weight="normal" text-decoration="none" x="1200" y="270">UNREGISTERED</text><text fill="#eeeeee" stroke="none" font-family="Arial" font-size="24px" font-style="normal" font-weight="normal" text-decoration="none" x="1200" y="300">UNREGISTERED</text><text fill="#eeeeee" stroke="none" font-family="Arial" font-size="24px" font-style="normal" font-weight="normal" text-decoration="none" x="1200" y="330">UNREGISTERED</text><text fill="#eeeeee" stroke="none" font-family="Arial" font-size="24px" font-style="normal" font-weight="normal" text-decoration="none" x="1200" y="360">UNREGISTERED</text><text fill="#eeeeee" stroke="none" font-family="Arial" font-size="24px" font-style="normal" font-weight="normal" text-decoration="none" x="1200" y="390">UNREGISTERED</text><text fill="#eeeeee" stroke="none" font-family="Arial" font-size="24px" font-style="normal" font-weight="normal" text-decoration="none" x="1200" y="420">UNREGISTERED</text><g transform="translate(-414,-150) scale(1,1)"><path fill="#ffffff" stroke="none" d="M 1088 160 L 1146 160 L 1156 170 L 1156 198 L 1088 198 L 1088 160"/></g><g transform="translate(-414,-150) scale(1,1)"><path fill="none" stroke="#000000" d="M 1088 160 L 1146 160 L 1156 170 L 1156 198 L 1088 198 L 1088 160 L 1088 160" stroke-miterlimit="10"/></g><g transform="translate(-414,-150) scale(1,1)"><path fill="none" stroke="#000000" d="M 1146 160 L 1146 170 L 1156 170 L 1146 160" stroke-miterlimit="10"/></g><g transform="translate(-414,-150) scale(1,1)"><g><path fill="none" stroke="none"/><text fill="#000000" stroke="none" font-family="Arial" font-size="13px" font-style="normal" font-weight="normal" text-decoration="none" x="1093" y="178">Estado</text><text fill="#000000" stroke="none" font-family="Arial" font-size="13px" font-style="normal" font-weight="normal" text-decoration="none" x="1093" y="191">Inicial</text></g></g><g transform="translate(-414,-150) scale(1,1)"><path fill="#C0C0C0" stroke="none" d="M 991 296.5 C 991 291.2532944 995.2532944 287 1000.5 287 C 1005.7467056 287 1010 291.2532944 1010 296.5 C 1010 301.7467056 1005.7467056 306 1000.5 306 C 995.2532944 306 991 301.7467056 991 296.5 Z" opacity="0.2"/></g><g transform="translate(-414,-150) scale(1,1)"><path fill="#000000" stroke="none" d="M 984 289.5 C 984 284.2532944 988.2532944 280 993.5 280 C 998.7467056 280 1003 284.2532944 1003 289.5 C 1003 294.7467056 998.7467056 299 993.5 299 C 988.2532944 299 984 294.7467056 984 289.5 Z"/></g><g transform="translate(-414,-150) scale(1,1)"><path fill="none" stroke="#000000" d="M 1120 216 L 1120 216" stroke-miterlimit="10"/></g><g transform="translate(-414,-150) scale(1,1)"><path fill="none" stroke="#000000" d="M 1097 200 L 1004 280" stroke-miterlimit="10" stroke-dasharray="6,4"/></g><g transform="translate(-414,-150) scale(1,1)"><path fill="#C0C0C0" stroke="none" d="M 441 511 L 541.25537109375 511 Q 551.25537109375 511 551.25537109375 521 L 551.25537109375 549 Q 551.25537109375 559 541.25537109375 559 L 441 559 Q 431 559 431 549 L 431 521 Q 431 511 441 511 Z" opacity="0.2"/></g><g transform="translate(-414,-150) scale(1,1)"><path fill="#ffffff" stroke="none" d="M 434 504 L 534.25537109375 504 Q 544.25537109375 504 544.25537109375 514 L 544.25537109375 542 Q 544.25537109375 552 534.25537109375 552 L 434 552 Q 424 552 424 542 L 424 514 Q 424 504 434 504 Z"/></g><g transform="translate(-414,-150) scale(1,1)"><path fill="none" stroke="#000000" d="M 434 504 L 534.25537109375 504 Q 544.25537109375 504 544.25537109375 514 L 544.25537109375 542 Q 544.25537109375 552 534.25537109375 552 L 434 552 Q 424 552 424 542 L 424 514 Q 424 504 434 504 Z" stroke-miterlimit="10"/></g><g transform="translate(-414,-150) scale(1,1)"><path fill="none" stroke="#000000" d="M 424 529 L 544.25537109375 529" stroke-miterlimit="10"/></g><g transform="translate(-414,-150) scale(1,1)"><g><path fill="none" stroke="none"/><text fill="#000000" stroke="none" font-family="Arial" font-size="13px" font-style="normal" font-weight="bold" text-decoration="none" x="457.753173828125" y="523.5">Decantar</text></g></g><g transform="translate(-414,-150) scale(1,1)"><g><path fill="none" stroke="none"/><text fill="#000000" stroke="none" font-family="Arial" font-size="13px" font-style="normal" font-weight="normal" text-decoration="none" x="429" y="546.5">do/decanta</text></g></g><g transform="translate(-414,-150) scale(1,1)"><path fill="#C0C0C0" stroke="none" d="M 649 511 L 784.2119140625 511 Q 794.2119140625 511 794.2119140625 521 L 794.2119140625 557 Q 794.2119140625 567 784.2119140625 567 L 649 567 Q 639 567 639 557 L 639 521 Q 639 511 649 511 Z" opacity="0.2"/></g><g transform="translate(-414,-150) scale(1,1)"><path fill="#ffffff" stroke="none" d="M 642 504 L 777.2119140625 504 Q 787.2119140625 504 787.2119140625 514 L 787.2119140625 550 Q 787.2119140625 560 777.2119140625 560 L 642 560 Q 632 560 632 550 L 632 514 Q 632 504 642 504 Z"/></g><g transform="translate(-414,-150) scale(1,1)"><path fill="none" stroke="#000000" d="M 642 504 L 777.2119140625 504 Q 787.2119140625 504 787.2119140625 514 L 787.2119140625 550 Q 787.2119140625 560 777.2119140625 560 L 642 560 Q 632 560 632 550 L 632 514 Q 632 504 642 504 Z" stroke-miterlimit="10"/></g><g transform="translate(-414,-150) scale(1,1)"><path fill="none" stroke="#000000" d="M 632 529 L 787.2119140625 529" stroke-miterlimit="10"/></g><g transform="translate(-414,-150) scale(1,1)"><g><path fill="none" stroke="none"/><text fill="#000000" stroke="none" font-family="Arial" font-size="13px" font-style="normal" font-weight="bold" text-decoration="none" x="645.535888671875" y="523.5">Transferir para tanque</text></g></g><g transform="translate(-414,-150) scale(1,1)"><g><path fill="none" stroke="none"/><text fill="#000000" stroke="none" font-family="Arial" font-size="13px" font-style="normal" font-weight="normal" text-decoration="none" x="637" y="546.5">do/transferirParaTanque</text></g></g><g transform="translate(-414,-150) scale(1,1)"><path fill="#C0C0C0" stroke="none" d="M 889 511 L 1030.69921875 511 Q 1040.69921875 511 1040.69921875 521 L 1040.69921875 549 Q 1040.69921875 559 1030.69921875 559 L 889 559 Q 879 559 879 549 L 879 521 Q 879 511 889 511 Z" opacity="0.2"/></g><g transform="translate(-414,-150) scale(1,1)"><path fill="#ffffff" stroke="none" d="M 882 504 L 1023.69921875 504 Q 1033.69921875 504 1033.69921875 514 L 1033.69921875 542 Q 1033.69921875 552 1023.69921875 552 L 882 552 Q 872 552 872 542 L 872 514 Q 872 504 882 504 Z"/></g><g transform="translate(-414,-150) scale(1,1)"><path fill="none" stroke="#000000" d="M 882 504 L 1023.69921875 504 Q 1033.69921875 504 1033.69921875 514 L 1033.69921875 542 Q 1033.69921875 552 1023.69921875 552 L 882 552 Q 872 552 872 542 L 872 514 Q 872 504 882 504 Z" stroke-miterlimit="10"/></g><g transform="translate(-414,-150) scale(1,1)"><path fill="none" stroke="#000000" d="M 872 529 L 1033.69921875 529" stroke-miterlimit="10"/></g><g transform="translate(-414,-150) scale(1,1)"><g><path fill="none" stroke="none"/><text fill="#000000" stroke="none" font-family="Arial" font-size="13px" font-style="normal" font-weight="bold" text-decoration="none" x="885.535888671875" y="523.5">Transferir para secador</text></g></g><g transform="translate(-414,-150) scale(1,1)"><g><path fill="none" stroke="none"/><text fill="#000000" stroke="none" font-family="Arial" font-size="13px" font-style="normal" font-weight="normal" text-decoration="none" x="877" y="546.5">do/transferirParaSecador</text></g></g><g transform="translate(-414,-150) scale(1,1)"><path fill="#C0C0C0" stroke="none" d="M 1161 519 L 1305.58740234375 519 Q 1315.58740234375 519 1315.58740234375 529 L 1315.58740234375 556 Q 1315.58740234375 566 1305.58740234375 566 L 1161 566 Q 1151 566 1151 556 L 1151 529 Q 1151 519 1161 519 Z" opacity="0.2"/></g><g transform="translate(-414,-150) scale(1,1)"><path fill="#ffffff" stroke="none" d="M 1154 512 L 1298.58740234375 512 Q 1308.58740234375 512 1308.58740234375 522 L 1308.58740234375 549 Q 1308.58740234375 559 1298.58740234375 559 L 1154 559 Q 1144 559 1144 549 L 1144 522 Q 1144 512 1154 512 Z"/></g><g transform="translate(-414,-150) scale(1,1)"><path fill="none" stroke="#000000" d="M 1154 512 L 1298.58740234375 512 Q 1308.58740234375 512 1308.58740234375 522 L 1308.58740234375 549 Q 1308.58740234375 559 1298.58740234375 559 L 1154 559 Q 1144 559 1144 549 L 1144 522 Q 1144 512 1154 512 Z" stroke-miterlimit="10"/></g><g transform="translate(-414,-150) scale(1,1)"><path fill="none" stroke="#000000" d="M 1144 537 L 1308.58740234375 537" stroke-miterlimit="10"/></g><g transform="translate(-414,-150) scale(1,1)"><g><path fill="none" stroke="none"/><text fill="#000000" stroke="none" font-family="Arial" font-size="13px" font-style="normal" font-weight="bold" text-decoration="none" x="1157.535888671875" y="531.5">Transferir para lavagem</text></g></g><g transform="translate(-414,-150) scale(1,1)"><g><path fill="none" stroke="none"/><text fill="#000000" stroke="none" font-family="Arial" font-size="13px" font-style="normal" font-weight="normal" text-decoration="none" x="1149" y="554.5">do/transferirParaLavagem</text></g></g><g transform="translate(-414,-150) scale(1,1)"><path fill="#C0C0C0" stroke="none" d="M 1457 519 L 1520.43896484375 519 Q 1530.43896484375 519 1530.43896484375 529 L 1530.43896484375 557 Q 1530.43896484375 567 1520.43896484375 567 L 1457 567 Q 1447 567 1447 557 L 1447 529 Q 1447 519 1457 519 Z" opacity="0.2"/></g><g transform="translate(-414,-150) scale(1,1)"><path fill="#ffffff" stroke="none" d="M 1450 512 L 1513.43896484375 512 Q 1523.43896484375 512 1523.43896484375 522 L 1523.43896484375 550 Q 1523.43896484375 560 1513.43896484375 560 L 1450 560 Q 1440 560 1440 550 L 1440 522 Q 1440 512 1450 512 Z"/></g><g transform="translate(-414,-150) scale(1,1)"><path fill="none" stroke="#000000" d="M 1450 512 L 1513.43896484375 512 Q 1523.43896484375 512 1523.43896484375 522 L 1523.43896484375 550 Q 1523.43896484375 560 1513.43896484375 560 L 1450 560 Q 1440 560 1440 550 L 1440 522 Q 1440 512 1450 512 Z" stroke-miterlimit="10"/></g><g transform="translate(-414,-150) scale(1,1)"><path fill="none" stroke="#000000" d="M 1440 537 L 1523.43896484375 537" stroke-miterlimit="10"/></g><g transform="translate(-414,-150) scale(1,1)"><g><path fill="none" stroke="none"/><text fill="#000000" stroke="none" font-family="Arial" font-size="13px" font-style="normal" font-weight="bold" text-decoration="none" x="1453.535888671875" y="531.5">Repousar</text></g></g><g transform="translate(-414,-150) scale(1,1)"><g><path fill="none" stroke="none"/><text fill="#000000" stroke="none" font-family="Arial" font-size="13px" font-style="normal" font-weight="normal" text-decoration="none" x="1445" y="554.5">do/repousar</text></g></g><g transform="translate(-414,-150) scale(1,1)"><path fill="none" stroke="#000000" d="M 983 294 L 537 503" stroke-miterlimit="10"/></g><g transform="translate(-414,-150) scale(1,1)"><path fill="none" stroke="#000000" d="M 544.4161563002051 494.8759230843789 L 537 503 L 547.9886042881311 502.4994245322976" stroke-miterlimit="10"/></g><g transform="translate(-414,-150) scale(1,1)"><g><path fill="none" stroke="none"/><text fill="#000000" stroke="none" font-family="Arial" font-size="13px" font-style="normal" font-weight="normal" text-decoration="none" x="643.5791015625" y="375.5">decanta</text></g></g><g transform="translate(-414,-150) scale(1,1)"><path fill="none" stroke="#000000" d="M 545 529 L 631 531" stroke-miterlimit="10"/></g><g transform="translate(-414,-150) scale(1,1)"><path fill="none" stroke="#000000" d="M 620.7422028826506 534.9721025036246 L 631 531 L 620.9379414824056 526.5553427141674" stroke-miterlimit="10"/></g><g transform="translate(-414,-150) scale(1,1)"><g><path fill="none" stroke="none"/><text fill="#000000" stroke="none" font-family="Arial" font-size="13px" font-style="normal" font-weight="normal" text-decoration="none" x="562.5" y="521.5">transfere</text></g></g><g transform="translate(-414,-150) scale(1,1)"><path fill="none" stroke="#000000" d="M 788 531 L 871 529" stroke-miterlimit="10"/></g><g transform="translate(-414,-150) scale(1,1)"><path fill="none" stroke="#000000" d="M 860.9416789920276 533.4531088579309 L 871 529 L 860.7388695371069 525.0365164787165" stroke-miterlimit="10"/></g><g transform="translate(-414,-150) scale(1,1)"><g><path fill="none" stroke="none"/><text fill="#000000" stroke="none" font-family="Arial" font-size="13px" font-style="normal" font-weight="normal" text-decoration="none" x="802.5" y="521.5">transfere</text></g></g><g transform="translate(-414,-150) scale(1,1)"><path fill="none" stroke="#000000" d="M 1035 530 L 1143 533" stroke-miterlimit="10"/></g><g transform="translate(-414,-150) scale(1,1)"><path fill="none" stroke="#000000" d="M 1132.7243576973333 536.9257069767938 L 1143 533 L 1132.9581296224949 528.5099176709792" stroke-miterlimit="10"/></g><g transform="translate(-414,-150) scale(1,1)"><g><path fill="none" stroke="none"/><text fill="#000000" stroke="none" font-family="Arial" font-size="13px" font-style="normal" font-weight="normal" text-decoration="none" x="1063.5" y="522.5">transfere</text></g></g><g transform="translate(-414,-150) scale(1,1)"><path fill="none" stroke="#000000" d="M 1310 535 L 1439 536" stroke-miterlimit="10"/></g><g transform="translate(-414,-150) scale(1,1)"><path fill="none" stroke="#000000" d="M 1428.8049995389342 540.1306132231022 L 1439 536 L 1428.870261419266 531.7118306602947" stroke-miterlimit="10"/></g><g transform="translate(-414,-150) scale(1,1)"><g><path fill="none" stroke="none"/><text fill="#000000" stroke="none" font-family="Arial" font-size="13px" font-style="normal" font-weight="normal" text-decoration="none" x="1350.661376953125" y="526.5">repousa</text></g></g><g transform="translate(-414,-150) scale(1,1)"><path fill="#C0C0C0" stroke="none" d="M 1591 555.5 C 1591 548.59644 1596.59644 543 1603.5 543 C 1610.40356 543 1616 548.59644 1616 555.5 C 1616 562.40356 1610.40356 568 1603.5 568 C 1596.59644 568 1591 562.40356 1591 555.5 Z" opacity="0.2"/></g><g transform="translate(-414,-150) scale(1,1)"><path fill="none" stroke="#000000" d="M 1584 548.5 C 1584 541.59644 1589.59644 536 1596.5 536 C 1603.40356 536 1609 541.59644 1609 548.5 C 1609 555.40356 1603.40356 561 1596.5 561 C 1589.59644 561 1584 555.40356 1584 548.5 Z" stroke-miterlimit="10"/></g><g transform="translate(-414,-150) scale(1,1)"><path fill="#000000" stroke="none" d="M 1589 548.5 C 1589 544.357864 1592.357864 541 1596.5 541 C 1600.642136 541 1604 544.357864 1604 548.5 C 1604 552.642136 1600.642136 556 1596.5 556 C 1592.357864 556 1589 552.642136 1589 548.5 Z"/></g><g transform="translate(-414,-150) scale(1,1)"><path fill="none" stroke="#000000" d="M 1524 541 L 1583 547" stroke-miterlimit="10"/></g><g transform="translate(-414,-150) scale(1,1)"><path fill="none" stroke="#000000" d="M 1572.4635815109227 550.1597286945292 L 1583 547 L 1573.3153614503428 541.7838926235655" stroke-miterlimit="10"/></g></g></svg>