<svg version="1.1" xmlns="http://www.w3.org/2000/svg" xmlns:xlink="http://www.w3.org/1999/xlink" width="457" height="517"><defs/><g><text fill="#eeeeee" stroke="none" font-family="Arial" font-size="24px" font-style="normal" font-weight="normal" text-decoration="none" x="0" y="0">UNREGISTERED</text><text fill="#eeeeee" stroke="none" font-family="Arial" font-size="24px" font-style="normal" font-weight="normal" text-decoration="none" x="0" y="30">UNREGISTERED</text><text fill="#eeeeee" stroke="none" font-family="Arial" font-size="24px" font-style="normal" font-weight="normal" text-decoration="none" x="0" y="60">UNREGISTERED</text><text fill="#eeeeee" stroke="none" font-family="Arial" font-size="24px" font-style="normal" font-weight="normal" text-decoration="none" x="0" y="90">UNREGISTERED</text><text fill="#eeeeee" stroke="none" font-family="Arial" font-size="24px" font-style="normal" font-weight="normal" text-decoration="none" x="0" y="120">UNREGISTERED</text><text fill="#eeeeee" stroke="none" font-family="Arial" font-size="24px" font-style="normal" font-weight="normal" text-decoration="none" x="0" y="150">UNREGISTERED</text><text fill="#eeeeee" stroke="none" font-family="Arial" font-size="24px" font-style="normal" font-weight="normal" text-decoration="none" x="0" y="180">UNREGISTERED</text><text fill="#eeeeee" stroke="none" font-family="Arial" font-size="24px" font-style="normal" font-weight="normal" text-decoration="none" x="0" y="210">UNREGISTERED</text><text fill="#eeeeee" stroke="none" font-family="Arial" font-size="24px" font-style="normal" font-weight="normal" text-decoration="none" x="0" y="240">UNREGISTERED</text><text fill="#eeeeee" stroke="none" font-family="Arial" font-size="24px" font-style="normal" font-weight="normal" text-decoration="none" x="0" y="270">UNREGISTERED</text><text fill="#eeeeee" stroke="none" font-family="Arial" font-size="24px" font-style="normal" font-weight="normal" text-decoration="none" x="0" y="300">UNREGISTERED</text><text fill="#eeeeee" stroke="none" font-family="Arial" font-size="24px" font-style="normal" font-weight="normal" text-decoration="none" x="0" y="330">UNREGISTERED</text><text fill="#eeeeee" stroke="none" font-family="Arial" font-size="24px" font-style="normal" font-weight="normal" text-decoration="none" x="0" y="360">UNREGISTERED</text><text fill="#eeeeee" stroke="none" font-family="Arial" font-size="24px" font-style="normal" font-weight="normal" text-decoration="none" x="0" y="390">UNREGISTERED</text><text fill="#eeeeee" stroke="none" font-family="Arial" font-size="24px" font-style="normal" font-weight="normal" text-decoration="none" x="0" y="420">UNREGISTERED</text><text fill="#eeeeee" stroke="none" font-family="Arial" font-size="24px" font-style="normal" font-weight="normal" text-decoration="none" x="0" y="450">UNREGISTERED</text><text fill="#eeeeee" stroke="none" font-family="Arial" font-size="24px" font-style="normal" font-weight="normal" text-decoration="none" x="0" y="480">UNREGISTERED</text><text fill="#eeeeee" stroke="none" font-family="Arial" font-size="24px" font-style="normal" font-weight="normal" text-decoration="none" x="0" y="510">UNREGISTERED</text><text fill="#eeeeee" stroke="none" font-family="Arial" font-size="24px" font-style="normal" font-weight="normal" text-decoration="none" x="200" y="0">UNREGISTERED</text><text fill="#eeeeee" stroke="none" font-family="Arial" font-size="24px" font-style="normal" font-weight="normal" text-decoration="none" x="200" y="30">UNREGISTERED</text><text fill="#eeeeee" stroke="none" font-family="Arial" font-size="24px" font-style="normal" font-weight="normal" text-decoration="none" x="200" y="60">UNREGISTERED</text><text fill="#eeeeee" stroke="none" font-family="Arial" font-size="24px" font-style="normal" font-weight="normal" text-decoration="none" x="200" y="90">UNREGISTERED</text><text fill="#eeeeee" stroke="none" font-family="Arial" font-size="24px" font-style="normal" font-weight="normal" text-decoration="none" x="200" y="120">UNREGISTERED</text><text fill="#eeeeee" stroke="none" font-family="Arial" font-size="24px" font-style="normal" font-weight="normal" text-decoration="none" x="200" y="150">UNREGISTERED</text><text fill="#eeeeee" stroke="none" font-family="Arial" font-size="24px" font-style="normal" font-weight="normal" text-decoration="none" x="200" y="180">UNREGISTERED</text><text fill="#eeeeee" stroke="none" font-family="Arial" font-size="24px" font-style="normal" font-weight="normal" text-decoration="none" x="200" y="210">UNREGISTERED</text><text fill="#eeeeee" stroke="none" font-family="Arial" font-size="24px" font-style="normal" font-weight="normal" text-decoration="none" x="200" y="240">UNREGISTERED</text><text fill="#eeeeee" stroke="none" font-family="Arial" font-size="24px" font-style="normal" font-weight="normal" text-decoration="none" x="200" y="270">UNREGISTERED</text><text fill="#eeeeee" stroke="none" font-family="Arial" font-size="24px" font-style="normal" font-weight="normal" text-decoration="none" x="200" y="300">UNREGISTERED</text><text fill="#eeeeee" stroke="none" font-family="Arial" font-size="24px" font-style="normal" font-weight="normal" text-decoration="none" x="200" y="330">UNREGISTERED</text><text fill="#eeeeee" stroke="none" font-family="Arial" font-size="24px" font-style="normal" font-weight="normal" text-decoration="none" x="200" y="360">UNREGISTERED</text><text fill="#eeeeee" stroke="none" font-family="Arial" font-size="24px" font-style="normal" font-weight="normal" text-decoration="none" x="200" y="390">UNREGISTERED</text><text fill="#eeeeee" stroke="none" font-family="Arial" font-size="24px" font-style="normal" font-weight="normal" text-decoration="none" x="200" y="420">UNREGISTERED</text><text fill="#eeeeee" stroke="none" font-family="Arial" font-size="24px" font-style="normal" font-weight="normal" text-decoration="none" x="200" y="450">UNREGISTERED</text><text fill="#eeeeee" stroke="none" font-family="Arial" font-size="24px" font-style="normal" font-weight="normal" text-decoration="none" x="200" y="480">UNREGISTERED</text><text fill="#eeeeee" stroke="none" font-family="Arial" font-size="24px" font-style="normal" font-weight="normal" text-decoration="none" x="200" y="510">UNREGISTERED</text><text fill="#eeeeee" stroke="none" font-family="Arial" font-size="24px" font-style="normal" font-weight="normal" text-decoration="none" x="400" y="0">UNREGISTERED</text><text fill="#eeeeee" stroke="none" font-family="Arial" font-size="24px" font-style="normal" font-weight="normal" text-decoration="none" x="400" y="30">UNREGISTERED</text><text fill="#eeeeee" stroke="none" font-family="Arial" font-size="24px" font-style="normal" font-weight="normal" text-decoration="none" x="400" y="60">UNREGISTERED</text><text fill="#eeeeee" stroke="none" font-family="Arial" font-size="24px" font-style="normal" font-weight="normal" text-decoration="none" x="400" y="90">UNREGISTERED</text><text fill="#eeeeee" stroke="none" font-family="Arial" font-size="24px" font-style="normal" font-weight="normal" text-decoration="none" x="400" y="120">UNREGISTERED</text><text fill="#eeeeee" stroke="none" font-family="Arial" font-size="24px" font-style="normal" font-weight="normal" text-decoration="none" x="400" y="150">UNREGISTERED</text><text fill="#eeeeee" stroke="none" font-family="Arial" font-size="24px" font-style="normal" font-weight="normal" text-decoration="none" x="400" y="180">UNREGISTERED</text><text fill="#eeeeee" stroke="none" font-family="Arial" font-size="24px" font-style="normal" font-weight="normal" text-decoration="none" x="400" y="210">UNREGISTERED</text><text fill="#eeeeee" stroke="none" font-family="Arial" font-size="24px" font-style="normal" font-weight="normal" text-decoration="none" x="400" y="240">UNREGISTERED</text><text fill="#eeeeee" stroke="none" font-family="Arial" font-size="24px" font-style="normal" font-weight="normal" text-decoration="none" x="400" y="270">UNREGISTERED</text><text fill="#eeeeee" stroke="none" font-family="Arial" font-size="24px" font-style="normal" font-weight="normal" text-decoration="none" x="400" y="300">UNREGISTERED</text><text fill="#eeeeee" stroke="none" font-family="Arial" font-size="24px" font-style="normal" font-weight="normal" text-decoration="none" x="400" y="330">UNREGISTERED</text><text fill="#eeeeee" stroke="none" font-family="Arial" font-size="24px" font-style="normal" font-weight="normal" text-decoration="none" x="400" y="360">UNREGISTERED</text><text fill="#eeeeee" stroke="none" font-family="Arial" font-size="24px" font-style="normal" font-weight="normal" text-decoration="none" x="400" y="390">UNREGISTERED</text><text fill="#eeeeee" stroke="none" font-family="Arial" font-size="24px" font-style="normal" font-weight="normal" text-decoration="none" x="400" y="420">UNREGISTERED</text><text fill="#eeeeee" stroke="none" font-family="Arial" font-size="24px" font-style="normal" font-weight="normal" text-decoration="none" x="400" y="450">UNREGISTERED</text><text fill="#eeeeee" stroke="none" font-family="Arial" font-size="24px" font-style="normal" font-weight="normal" text-decoration="none" x="400" y="480">UNREGISTERED</text><text fill="#eeeeee" stroke="none" font-family="Arial" font-size="24px" font-style="normal" font-weight="normal" text-decoration="none" x="400" y="510">UNREGISTERED</text><g transform="translate(-414,-238) scale(1,1)"><path fill="#ffffff" stroke="none" d="M 792 248 L 850 248 L 860 258 L 860 286 L 792 286 L 792 248"/></g><g transform="translate(-414,-238) scale(1,1)"><path fill="none" stroke="#000000" d="M 792 248 L 850 248 L 860 258 L 860 286 L 792 286 L 792 248 L 792 248" stroke-miterlimit="10"/></g><g transform="translate(-414,-238) scale(1,1)"><path fill="none" stroke="#000000" d="M 850 248 L 850 258 L 860 258 L 850 248" stroke-miterlimit="10"/></g><g transform="translate(-414,-238) scale(1,1)"><g><path fill="none" stroke="none"/><text fill="#000000" stroke="none" font-family="Arial" font-size="13px" font-style="normal" font-weight="normal" text-decoration="none" x="797" y="266">Estado</text><text fill="#000000" stroke="none" font-family="Arial" font-size="13px" font-style="normal" font-weight="normal" text-decoration="none" x="797" y="279">Inicial</text></g></g><g transform="translate(-414,-238) scale(1,1)"><path fill="#C0C0C0" stroke="none" d="M 599 344.5 C 599 339.2532944 603.2532944 335 608.5 335 C 613.7467056 335 618 339.2532944 618 344.5 C 618 349.7467056 613.7467056 354 608.5 354 C 603.2532944 354 599 349.7467056 599 344.5 Z" opacity="0.2"/></g><g transform="translate(-414,-238) scale(1,1)"><path fill="#000000" stroke="none" d="M 592 337.5 C 592 332.2532944 596.2532944 328 601.5 328 C 606.7467056 328 611 332.2532944 611 337.5 C 611 342.7467056 606.7467056 347 601.5 347 C 596.2532944 347 592 342.7467056 592 337.5 Z"/></g><g transform="translate(-414,-238) scale(1,1)"><path fill="none" stroke="#000000" d="M 791 278 L 612 334" stroke-miterlimit="10" stroke-dasharray="6,4"/></g><g transform="translate(-414,-238) scale(1,1)"><path fill="#C0C0C0" stroke="none" d="M 441 447 L 548.49169921875 447 Q 558.49169921875 447 558.49169921875 457 L 558.49169921875 493 Q 558.49169921875 503 548.49169921875 503 L 441 503 Q 431 503 431 493 L 431 457 Q 431 447 441 447 Z" opacity="0.2"/></g><g transform="translate(-414,-238) scale(1,1)"><path fill="#ffffff" stroke="none" d="M 434 440 L 541.49169921875 440 Q 551.49169921875 440 551.49169921875 450 L 551.49169921875 486 Q 551.49169921875 496 541.49169921875 496 L 434 496 Q 424 496 424 486 L 424 450 Q 424 440 434 440 Z"/></g><g transform="translate(-414,-238) scale(1,1)"><path fill="none" stroke="#000000" d="M 434 440 L 541.49169921875 440 Q 551.49169921875 440 551.49169921875 450 L 551.49169921875 486 Q 551.49169921875 496 541.49169921875 496 L 434 496 Q 424 496 424 486 L 424 450 Q 424 440 434 440 Z" stroke-miterlimit="10"/></g><g transform="translate(-414,-238) scale(1,1)"><path fill="none" stroke="#000000" d="M 424 465 L 551.49169921875 465" stroke-miterlimit="10"/></g><g transform="translate(-414,-238) scale(1,1)"><g><path fill="none" stroke="none"/><text fill="#000000" stroke="none" font-family="Arial" font-size="13px" font-style="normal" font-weight="bold" text-decoration="none" x="435.371337890625" y="459.5">Processar mistura</text></g></g><g transform="translate(-414,-238) scale(1,1)"><g><path fill="none" stroke="none"/><text fill="#000000" stroke="none" font-family="Arial" font-size="13px" font-style="normal" font-weight="normal" text-decoration="none" x="429" y="482.5">do/processaMistura</text></g></g><g transform="translate(-414,-238) scale(1,1)"><path fill="none" stroke="#000000" d="M 591 348 L 512 439" stroke-miterlimit="10"/></g><g transform="translate(-414,-238) scale(1,1)"><path fill="none" stroke="#000000" d="M 515.4834846780393 428.56614479217455 L 512 439 L 521.8410454093729 434.0853458666291" stroke-miterlimit="10"/></g><g transform="translate(-414,-238) scale(1,1)"><g><path fill="none" stroke="none"/><text fill="#000000" stroke="none" font-family="Arial" font-size="13px" font-style="normal" font-weight="normal" text-decoration="none" x="480.5" y="377.5">Processa</text></g></g><g transform="translate(-414,-238) scale(1,1)"><path fill="#C0C0C0" stroke="none" d="M 441 567 L 603.671875 567 Q 613.671875 567 613.671875 577 L 613.671875 605 Q 613.671875 615 603.671875 615 L 441 615 Q 431 615 431 605 L 431 577 Q 431 567 441 567 Z" opacity="0.2"/></g><g transform="translate(-414,-238) scale(1,1)"><path fill="#ffffff" stroke="none" d="M 434 560 L 596.671875 560 Q 606.671875 560 606.671875 570 L 606.671875 598 Q 606.671875 608 596.671875 608 L 434 608 Q 424 608 424 598 L 424 570 Q 424 560 434 560 Z"/></g><g transform="translate(-414,-238) scale(1,1)"><path fill="none" stroke="#000000" d="M 434 560 L 596.671875 560 Q 606.671875 560 606.671875 570 L 606.671875 598 Q 606.671875 608 596.671875 608 L 434 608 Q 424 608 424 598 L 424 570 Q 424 560 434 560 Z" stroke-miterlimit="10"/></g><g transform="translate(-414,-238) scale(1,1)"><path fill="none" stroke="#000000" d="M 424 585 L 606.671875 585" stroke-miterlimit="10"/></g><g transform="translate(-414,-238) scale(1,1)"><g><path fill="none" stroke="none"/><text fill="#000000" stroke="none" font-family="Arial" font-size="13px" font-style="normal" font-weight="bold" text-decoration="none" x="440.792236328125" y="579.5">Tranferir para Decantador</text></g></g><g transform="translate(-414,-238) scale(1,1)"><g><path fill="none" stroke="none"/><text fill="#000000" stroke="none" font-family="Arial" font-size="13px" font-style="normal" font-weight="normal" text-decoration="none" x="429" y="602.5">do/transfereParaDecantador</text></g></g><g transform="translate(-414,-238) scale(1,1)"><path fill="none" stroke="#000000" d="M 494 497 L 509 559" stroke-miterlimit="10"/></g><g transform="translate(-414,-238) scale(1,1)"><path fill="none" stroke="#000000" d="M 502.51875591263456 550.1121726456917 L 509 559 L 510.70171134754537 548.132425363052" stroke-miterlimit="10"/></g><g transform="translate(-414,-238) scale(1,1)"><g><path fill="none" stroke="none"/><text fill="#000000" stroke="none" font-family="Arial" font-size="13px" font-style="normal" font-weight="normal" text-decoration="none" x="439.5" y="531.5">transfere</text></g></g><g transform="translate(-414,-238) scale(1,1)"><path fill="#C0C0C0" stroke="none" d="M 567 739.5 C 567 732.59644 572.59644 727 579.5 727 C 586.40356 727 592 732.59644 592 739.5 C 592 746.40356 586.40356 752 579.5 752 C 572.59644 752 567 746.40356 567 739.5 Z" opacity="0.2"/></g><g transform="translate(-414,-238) scale(1,1)"><path fill="none" stroke="#000000" d="M 560 732.5 C 560 725.59644 565.59644 720 572.5 720 C 579.40356 720 585 725.59644 585 732.5 C 585 739.40356 579.40356 745 572.5 745 C 565.59644 745 560 739.40356 560 732.5 Z" stroke-miterlimit="10"/></g><g transform="translate(-414,-238) scale(1,1)"><path fill="#000000" stroke="none" d="M 565 732.5 C 565 728.357864 568.357864 725 572.5 725 C 576.642136 725 580 728.357864 580 732.5 C 580 736.642136 576.642136 740 572.5 740 C 568.357864 740 565 736.642136 565 732.5 Z"/></g><g transform="translate(-414,-238) scale(1,1)"><path fill="none" stroke="#000000" d="M 525 609 L 567 719" stroke-miterlimit="10"/></g><g transform="translate(-414,-238) scale(1,1)"><path fill="none" stroke="#000000" d="M 559.4423490826566 711.0073838693718 L 567 719 L 567.307566851894 708.0043007211176" stroke-miterlimit="10"/></g></g></svg>