<svg version="1.1" xmlns="http://www.w3.org/2000/svg" xmlns:xlink="http://www.w3.org/1999/xlink" width="297" height="525"><defs/><g><text fill="#eeeeee" stroke="none" font-family="Arial" font-size="24px" font-style="normal" font-weight="normal" text-decoration="none" x="0" y="0">UNREGISTERED</text><text fill="#eeeeee" stroke="none" font-family="Arial" font-size="24px" font-style="normal" font-weight="normal" text-decoration="none" x="0" y="30">UNREGISTERED</text><text fill="#eeeeee" stroke="none" font-family="Arial" font-size="24px" font-style="normal" font-weight="normal" text-decoration="none" x="0" y="60">UNREGISTERED</text><text fill="#eeeeee" stroke="none" font-family="Arial" font-size="24px" font-style="normal" font-weight="normal" text-decoration="none" x="0" y="90">UNREGISTERED</text><text fill="#eeeeee" stroke="none" font-family="Arial" font-size="24px" font-style="normal" font-weight="normal" text-decoration="none" x="0" y="120">UNREGISTERED</text><text fill="#eeeeee" stroke="none" font-family="Arial" font-size="24px" font-style="normal" font-weight="normal" text-decoration="none" x="0" y="150">UNREGISTERED</text><text fill="#eeeeee" stroke="none" font-family="Arial" font-size="24px" font-style="normal" font-weight="normal" text-decoration="none" x="0" y="180">UNREGISTERED</text><text fill="#eeeeee" stroke="none" font-family="Arial" font-size="24px" font-style="normal" font-weight="normal" text-decoration="none" x="0" y="210">UNREGISTERED</text><text fill="#eeeeee" stroke="none" font-family="Arial" font-size="24px" font-style="normal" font-weight="normal" text-decoration="none" x="0" y="240">UNREGISTERED</text><text fill="#eeeeee" stroke="none" font-family="Arial" font-size="24px" font-style="normal" font-weight="normal" text-decoration="none" x="0" y="270">UNREGISTERED</text><text fill="#eeeeee" stroke="none" font-family="Arial" font-size="24px" font-style="normal" font-weight="normal" text-decoration="none" x="0" y="300">UNREGISTERED</text><text fill="#eeeeee" stroke="none" font-family="Arial" font-size="24px" font-style="normal" font-weight="normal" text-decoration="none" x="0" y="330">UNREGISTERED</text><text fill="#eeeeee" stroke="none" font-family="Arial" font-size="24px" font-style="normal" font-weight="normal" text-decoration="none" x="0" y="360">UNREGISTERED</text><text fill="#eeeeee" stroke="none" font-family="Arial" font-size="24px" font-style="normal" font-weight="normal" text-decoration="none" x="0" y="390">UNREGISTERED</text><text fill="#eeeeee" stroke="none" font-family="Arial" font-size="24px" font-style="normal" font-weight="normal" text-decoration="none" x="0" y="420">UNREGISTERED</text><text fill="#eeeeee" stroke="none" font-family="Arial" font-size="24px" font-style="normal" font-weight="normal" text-decoration="none" x="0" y="450">UNREGISTERED</text><text fill="#eeeeee" stroke="none" font-family="Arial" font-size="24px" font-style="normal" font-weight="normal" text-decoration="none" x="0" y="480">UNREGISTERED</text><text fill="#eeeeee" stroke="none" font-family="Arial" font-size="24px" font-style="normal" font-weight="normal" text-decoration="none" x="0" y="510">UNREGISTERED</text><text fill="#eeeeee" stroke="none" font-family="Arial" font-size="24px" font-style="normal" font-weight="normal" text-decoration="none" x="200" y="0">UNREGISTERED</text><text fill="#eeeeee" stroke="none" font-family="Arial" font-size="24px" font-style="normal" font-weight="normal" text-decoration="none" x="200" y="30">UNREGISTERED</text><text fill="#eeeeee" stroke="none" font-family="Arial" font-size="24px" font-style="normal" font-weight="normal" text-decoration="none" x="200" y="60">UNREGISTERED</text><text fill="#eeeeee" stroke="none" font-family="Arial" font-size="24px" font-style="normal" font-weight="normal" text-decoration="none" x="200" y="90">UNREGISTERED</text><text fill="#eeeeee" stroke="none" font-family="Arial" font-size="24px" font-style="normal" font-weight="normal" text-decoration="none" x="200" y="120">UNREGISTERED</text><text fill="#eeeeee" stroke="none" font-family="Arial" font-size="24px" font-style="normal" font-weight="normal" text-decoration="none" x="200" y="150">UNREGISTERED</text><text fill="#eeeeee" stroke="none" font-family="Arial" font-size="24px" font-style="normal" font-weight="normal" text-decoration="none" x="200" y="180">UNREGISTERED</text><text fill="#eeeeee" stroke="none" font-family="Arial" font-size="24px" font-style="normal" font-weight="normal" text-decoration="none" x="200" y="210">UNREGISTERED</text><text fill="#eeeeee" stroke="none" font-family="Arial" font-size="24px" font-style="normal" font-weight="normal" text-decoration="none" x="200" y="240">UNREGISTERED</text><text fill="#eeeeee" stroke="none" font-family="Arial" font-size="24px" font-style="normal" font-weight="normal" text-decoration="none" x="200" y="270">UNREGISTERED</text><text fill="#eeeeee" stroke="none" font-family="Arial" font-size="24px" font-style="normal" font-weight="normal" text-decoration="none" x="200" y="300">UNREGISTERED</text><text fill="#eeeeee" stroke="none" font-family="Arial" font-size="24px" font-style="normal" font-weight="normal" text-decoration="none" x="200" y="330">UNREGISTERED</text><text fill="#eeeeee" stroke="none" font-family="Arial" font-size="24px" font-style="normal" font-weight="normal" text-decoration="none" x="200" y="360">UNREGISTERED</text><text fill="#eeeeee" stroke="none" font-family="Arial" font-size="24px" font-style="normal" font-weight="normal" text-decoration="none" x="200" y="390">UNREGISTERED</text><text fill="#eeeeee" stroke="none" font-family="Arial" font-size="24px" font-style="normal" font-weight="normal" text-decoration="none" x="200" y="420">UNREGISTERED</text><text fill="#eeeeee" stroke="none" font-family="Arial" font-size="24px" font-style="normal" font-weight="normal" text-decoration="none" x="200" y="450">UNREGISTERED</text><text fill="#eeeeee" stroke="none" font-family="Arial" font-size="24px" font-style="normal" font-weight="normal" text-decoration="none" x="200" y="480">UNREGISTERED</text><text fill="#eeeeee" stroke="none" font-family="Arial" font-size="24px" font-style="normal" font-weight="normal" text-decoration="none" x="200" y="510">UNREGISTERED</text><g transform="translate(-750,-278) scale(1,1)"><path fill="#ffffff" stroke="none" d="M 968 288 L 1026 288 L 1036 298 L 1036 326 L 968 326 L 968 288"/></g><g transform="translate(-750,-278) scale(1,1)"><path fill="none" stroke="#000000" d="M 968 288 L 1026 288 L 1036 298 L 1036 326 L 968 326 L 968 288 L 968 288" stroke-miterlimit="10"/></g><g transform="translate(-750,-278) scale(1,1)"><path fill="none" stroke="#000000" d="M 1026 288 L 1026 298 L 1036 298 L 1026 288" stroke-miterlimit="10"/></g><g transform="translate(-750,-278) scale(1,1)"><g><path fill="none" stroke="none"/><text fill="#000000" stroke="none" font-family="Arial" font-size="13px" font-style="normal" font-weight="normal" text-decoration="none" x="973" y="306">Estado</text><text fill="#000000" stroke="none" font-family="Arial" font-size="13px" font-style="normal" font-weight="normal" text-decoration="none" x="973" y="319">Inicial</text></g></g><g transform="translate(-750,-278) scale(1,1)"><path fill="#C0C0C0" stroke="none" d="M 799 328.5 C 799 323.2532944 803.2532944 319 808.5 319 C 813.7467056 319 818 323.2532944 818 328.5 C 818 333.7467056 813.7467056 338 808.5 338 C 803.2532944 338 799 333.7467056 799 328.5 Z" opacity="0.2"/></g><g transform="translate(-750,-278) scale(1,1)"><path fill="#000000" stroke="none" d="M 792 321.5 C 792 316.2532944 796.2532944 312 801.5 312 C 806.7467056 312 811 316.2532944 811 321.5 C 811 326.7467056 806.7467056 331 801.5 331 C 796.2532944 331 792 326.7467056 792 321.5 Z"/></g><g transform="translate(-750,-278) scale(1,1)"><path fill="none" stroke="#000000" d="M 967 309 L 812 320" stroke-miterlimit="10" stroke-dasharray="6,4"/></g><g transform="translate(-750,-278) scale(1,1)"><path fill="#C0C0C0" stroke="none" d="M 801 599 L 936.2119140625 599 Q 946.2119140625 599 946.2119140625 609 L 946.2119140625 636 Q 946.2119140625 646 936.2119140625 646 L 801 646 Q 791 646 791 636 L 791 609 Q 791 599 801 599 Z" opacity="0.2"/></g><g transform="translate(-750,-278) scale(1,1)"><path fill="#ffffff" stroke="none" d="M 794 592 L 929.2119140625 592 Q 939.2119140625 592 939.2119140625 602 L 939.2119140625 629 Q 939.2119140625 639 929.2119140625 639 L 794 639 Q 784 639 784 629 L 784 602 Q 784 592 794 592 Z"/></g><g transform="translate(-750,-278) scale(1,1)"><path fill="none" stroke="#000000" d="M 794 592 L 929.2119140625 592 Q 939.2119140625 592 939.2119140625 602 L 939.2119140625 629 Q 939.2119140625 639 929.2119140625 639 L 794 639 Q 784 639 784 629 L 784 602 Q 784 592 794 592 Z" stroke-miterlimit="10"/></g><g transform="translate(-750,-278) scale(1,1)"><path fill="none" stroke="#000000" d="M 784 617 L 939.2119140625 617" stroke-miterlimit="10"/></g><g transform="translate(-750,-278) scale(1,1)"><g><path fill="none" stroke="none"/><text fill="#000000" stroke="none" font-family="Arial" font-size="13px" font-style="normal" font-weight="bold" text-decoration="none" x="797.535888671875" y="611.5">Transferir para tanque</text></g></g><g transform="translate(-750,-278) scale(1,1)"><g><path fill="none" stroke="none"/><text fill="#000000" stroke="none" font-family="Arial" font-size="13px" font-style="normal" font-weight="normal" text-decoration="none" x="789" y="634.5">do/transferirParaTanque</text></g></g><g transform="translate(-750,-278) scale(1,1)"><path fill="#C0C0C0" stroke="none" d="M 777 455 L 881.6162109375 455 Q 891.6162109375 455 891.6162109375 465 L 891.6162109375 493 Q 891.6162109375 503 881.6162109375 503 L 777 503 Q 767 503 767 493 L 767 465 Q 767 455 777 455 Z" opacity="0.2"/></g><g transform="translate(-750,-278) scale(1,1)"><path fill="#ffffff" stroke="none" d="M 770 448 L 874.6162109375 448 Q 884.6162109375 448 884.6162109375 458 L 884.6162109375 486 Q 884.6162109375 496 874.6162109375 496 L 770 496 Q 760 496 760 486 L 760 458 Q 760 448 770 448 Z"/></g><g transform="translate(-750,-278) scale(1,1)"><path fill="none" stroke="#000000" d="M 770 448 L 874.6162109375 448 Q 884.6162109375 448 884.6162109375 458 L 884.6162109375 486 Q 884.6162109375 496 874.6162109375 496 L 770 496 Q 760 496 760 486 L 760 458 Q 760 448 770 448 Z" stroke-miterlimit="10"/></g><g transform="translate(-750,-278) scale(1,1)"><path fill="none" stroke="#000000" d="M 760 473 L 884.6162109375 473" stroke-miterlimit="10"/></g><g transform="translate(-750,-278) scale(1,1)"><g><path fill="none" stroke="none"/><text fill="#000000" stroke="none" font-family="Arial" font-size="13px" font-style="normal" font-weight="bold" text-decoration="none" x="769.200439453125" y="467.5">Realizar Secagem</text></g></g><g transform="translate(-750,-278) scale(1,1)"><g><path fill="none" stroke="none"/><text fill="#000000" stroke="none" font-family="Arial" font-size="13px" font-style="normal" font-weight="normal" text-decoration="none" x="765" y="490.5">do/realizarSecagem</text></g></g><g transform="translate(-750,-278) scale(1,1)"><path fill="none" stroke="#000000" d="M 803 332 L 819 447" stroke-miterlimit="10"/></g><g transform="translate(-750,-278) scale(1,1)"><path fill="none" stroke="#000000" d="M 813.4301946238211 437.5143651729846 L 819 447 L 821.7689095586564 436.35419613857266" stroke-miterlimit="10"/></g><g transform="translate(-750,-278) scale(1,1)"><g><path fill="none" stroke="none"/><text fill="#000000" stroke="none" font-family="Arial" font-size="13px" font-style="normal" font-weight="normal" text-decoration="none" x="809.5" y="392.5">secar</text></g></g><g transform="translate(-750,-278) scale(1,1)"><path fill="none" stroke="#000000" d="M 829 497 L 854 591" stroke-miterlimit="10"/></g><g transform="translate(-750,-278) scale(1,1)"><path fill="none" stroke="#000000" d="M 847.3198612888996 582.2606781269678 L 854 591 L 855.4560623775071 580.0967948587212" stroke-miterlimit="10"/></g><g transform="translate(-750,-278) scale(1,1)"><g><path fill="none" stroke="none"/><text fill="#000000" stroke="none" font-family="Arial" font-size="13px" font-style="normal" font-weight="normal" text-decoration="none" x="863.5" y="548.5">transfere</text></g></g><g transform="translate(-750,-278) scale(1,1)"><path fill="#C0C0C0" stroke="none" d="M 871 787.5 C 871 780.59644 876.59644 775 883.5 775 C 890.40356 775 896 780.59644 896 787.5 C 896 794.40356 890.40356 800 883.5 800 C 876.59644 800 871 794.40356 871 787.5 Z" opacity="0.2"/></g><g transform="translate(-750,-278) scale(1,1)"><path fill="none" stroke="#000000" d="M 864 780.5 C 864 773.59644 869.59644 768 876.5 768 C 883.40356 768 889 773.59644 889 780.5 C 889 787.40356 883.40356 793 876.5 793 C 869.59644 793 864 787.40356 864 780.5 Z" stroke-miterlimit="10"/></g><g transform="translate(-750,-278) scale(1,1)"><path fill="#000000" stroke="none" d="M 869 780.5 C 869 776.357864 872.357864 773 876.5 773 C 880.642136 773 884 776.357864 884 780.5 C 884 784.642136 880.642136 788 876.5 788 C 872.357864 788 869 784.642136 869 780.5 Z"/></g><g transform="translate(-750,-278) scale(1,1)"><path fill="none" stroke="#000000" d="M 863 640 L 875 767" stroke-miterlimit="10"/></g><g transform="translate(-750,-278) scale(1,1)"><path fill="none" stroke="#000000" d="M 869.8531540140489 757.2783758354431 L 875 767 L 878.2348566725165 756.4864039307059" stroke-miterlimit="10"/></g></g></svg>