<svg version="1.1" xmlns="http://www.w3.org/2000/svg" xmlns:xlink="http://www.w3.org/1999/xlink" width="361" height="204"><defs/><g><text fill="#eeeeee" stroke="none" font-family="Arial" font-size="24px" font-style="normal" font-weight="normal" text-decoration="none" x="0" y="0">UNREGISTERED</text><text fill="#eeeeee" stroke="none" font-family="Arial" font-size="24px" font-style="normal" font-weight="normal" text-decoration="none" x="0" y="30">UNREGISTERED</text><text fill="#eeeeee" stroke="none" font-family="Arial" font-size="24px" font-style="normal" font-weight="normal" text-decoration="none" x="0" y="60">UNREGISTERED</text><text fill="#eeeeee" stroke="none" font-family="Arial" font-size="24px" font-style="normal" font-weight="normal" text-decoration="none" x="0" y="90">UNREGISTERED</text><text fill="#eeeeee" stroke="none" font-family="Arial" font-size="24px" font-style="normal" font-weight="normal" text-decoration="none" x="0" y="120">UNREGISTERED</text><text fill="#eeeeee" stroke="none" font-family="Arial" font-size="24px" font-style="normal" font-weight="normal" text-decoration="none" x="0" y="150">UNREGISTERED</text><text fill="#eeeeee" stroke="none" font-family="Arial" font-size="24px" font-style="normal" font-weight="normal" text-decoration="none" x="0" y="180">UNREGISTERED</text><text fill="#eeeeee" stroke="none" font-family="Arial" font-size="24px" font-style="normal" font-weight="normal" text-decoration="none" x="200" y="0">UNREGISTERED</text><text fill="#eeeeee" stroke="none" font-family="Arial" font-size="24px" font-style="normal" font-weight="normal" text-decoration="none" x="200" y="30">UNREGISTERED</text><text fill="#eeeeee" stroke="none" font-family="Arial" font-size="24px" font-style="normal" font-weight="normal" text-decoration="none" x="200" y="60">UNREGISTERED</text><text fill="#eeeeee" stroke="none" font-family="Arial" font-size="24px" font-style="normal" font-weight="normal" text-decoration="none" x="200" y="90">UNREGISTERED</text><text fill="#eeeeee" stroke="none" font-family="Arial" font-size="24px" font-style="normal" font-weight="normal" text-decoration="none" x="200" y="120">UNREGISTERED</text><text fill="#eeeeee" stroke="none" font-family="Arial" font-size="24px" font-style="normal" font-weight="normal" text-decoration="none" x="200" y="150">UNREGISTERED</text><text fill="#eeeeee" stroke="none" font-family="Arial" font-size="24px" font-style="normal" font-weight="normal" text-decoration="none" x="200" y="180">UNREGISTERED</text><g transform="translate(-550,-198) scale(1,1)"><path fill="#ffffff" stroke="none" d="M 832 208 L 890 208 L 900 218 L 900 246 L 832 246 L 832 208"/></g><g transform="translate(-550,-198) scale(1,1)"><path fill="none" stroke="#000000" d="M 832 208 L 890 208 L 900 218 L 900 246 L 832 246 L 832 208 L 832 208" stroke-miterlimit="10"/></g><g transform="translate(-550,-198) scale(1,1)"><path fill="none" stroke="#000000" d="M 890 208 L 890 218 L 900 218 L 890 208" stroke-miterlimit="10"/></g><g transform="translate(-550,-198) scale(1,1)"><g><path fill="none" stroke="none"/><text fill="#000000" stroke="none" font-family="Arial" font-size="13px" font-style="normal" font-weight="normal" text-decoration="none" x="837" y="226">Estado</text><text fill="#000000" stroke="none" font-family="Arial" font-size="13px" font-style="normal" font-weight="normal" text-decoration="none" x="837" y="239">Inicial</text></g></g><g transform="translate(-550,-198) scale(1,1)"><path fill="#C0C0C0" stroke="none" d="M 687 232.5 C 687 227.2532944 691.2532944 223 696.5 223 C 701.7467056 223 706 227.2532944 706 232.5 C 706 237.7467056 701.7467056 242 696.5 242 C 691.2532944 242 687 237.7467056 687 232.5 Z" opacity="0.2"/></g><g transform="translate(-550,-198) scale(1,1)"><path fill="#000000" stroke="none" d="M 680 225.5 C 680 220.2532944 684.2532944 216 689.5 216 C 694.7467056 216 699 220.2532944 699 225.5 C 699 230.7467056 694.7467056 235 689.5 235 C 684.2532944 235 680 230.7467056 680 225.5 Z"/></g><g transform="translate(-550,-198) scale(1,1)"><path fill="none" stroke="#000000" d="M 831 227 L 700 225" stroke-miterlimit="10" stroke-dasharray="6,4"/></g><g transform="translate(-550,-198) scale(1,1)"><path fill="#C0C0C0" stroke="none" d="M 577 351 L 674.62744140625 351 Q 684.62744140625 351 684.62744140625 361 L 684.62744140625 389 Q 684.62744140625 399 674.62744140625 399 L 577 399 Q 567 399 567 389 L 567 361 Q 567 351 577 351 Z" opacity="0.2"/></g><g transform="translate(-550,-198) scale(1,1)"><path fill="#ffffff" stroke="none" d="M 570 344 L 667.62744140625 344 Q 677.62744140625 344 677.62744140625 354 L 677.62744140625 382 Q 677.62744140625 392 667.62744140625 392 L 570 392 Q 560 392 560 382 L 560 354 Q 560 344 570 344 Z"/></g><g transform="translate(-550,-198) scale(1,1)"><path fill="none" stroke="#000000" d="M 570 344 L 667.62744140625 344 Q 677.62744140625 344 677.62744140625 354 L 677.62744140625 382 Q 677.62744140625 392 667.62744140625 392 L 570 392 Q 560 392 560 382 L 560 354 Q 560 344 570 344 Z" stroke-miterlimit="10"/></g><g transform="translate(-550,-198) scale(1,1)"><path fill="none" stroke="#000000" d="M 560 369 L 677.62744140625 369" stroke-miterlimit="10"/></g><g transform="translate(-550,-198) scale(1,1)"><g><path fill="none" stroke="none"/><text fill="#000000" stroke="none" font-family="Arial" font-size="13px" font-style="normal" font-weight="bold" text-decoration="none" x="573.90087890625" y="363.5">Transferir fluido</text></g></g><g transform="translate(-550,-198) scale(1,1)"><g><path fill="none" stroke="none"/><text fill="#000000" stroke="none" font-family="Arial" font-size="13px" font-style="normal" font-weight="normal" text-decoration="none" x="565" y="386.5">do/transfereFluido</text></g></g><g transform="translate(-550,-198) scale(1,1)"><path fill="none" stroke="#000000" d="M 684 236 L 630 343" stroke-miterlimit="10"/></g><g transform="translate(-550,-198) scale(1,1)"><path fill="none" stroke="#000000" d="M 630.8207150236748 332.0306596893927 L 630 343 L 638.3368280774355 335.82383823988874" stroke-miterlimit="10"/></g><g transform="translate(-550,-198) scale(1,1)"><g><path fill="none" stroke="none"/><text fill="#000000" stroke="none" font-family="Arial" font-size="13px" font-style="normal" font-weight="normal" text-decoration="none" x="680.5" y="290.5">transfere</text></g></g></g></svg>