<svg version="1.1" xmlns="http://www.w3.org/2000/svg" xmlns:xlink="http://www.w3.org/1999/xlink" width="723" height="773"><defs/><g><text fill="#eeeeee" stroke="none" font-family="Arial" font-size="24px" font-style="normal" font-weight="normal" text-decoration="none" x="0" y="0">UNREGISTERED</text><text fill="#eeeeee" stroke="none" font-family="Arial" font-size="24px" font-style="normal" font-weight="normal" text-decoration="none" x="0" y="30">UNREGISTERED</text><text fill="#eeeeee" stroke="none" font-family="Arial" font-size="24px" font-style="normal" font-weight="normal" text-decoration="none" x="0" y="60">UNREGISTERED</text><text fill="#eeeeee" stroke="none" font-family="Arial" font-size="24px" font-style="normal" font-weight="normal" text-decoration="none" x="0" y="90">UNREGISTERED</text><text fill="#eeeeee" stroke="none" font-family="Arial" font-size="24px" font-style="normal" font-weight="normal" text-decoration="none" x="0" y="120">UNREGISTERED</text><text fill="#eeeeee" stroke="none" font-family="Arial" font-size="24px" font-style="normal" font-weight="normal" text-decoration="none" x="0" y="150">UNREGISTERED</text><text fill="#eeeeee" stroke="none" font-family="Arial" font-size="24px" font-style="normal" font-weight="normal" text-decoration="none" x="0" y="180">UNREGISTERED</text><text fill="#eeeeee" stroke="none" font-family="Arial" font-size="24px" font-style="normal" font-weight="normal" text-decoration="none" x="0" y="210">UNREGISTERED</text><text fill="#eeeeee" stroke="none" font-family="Arial" font-size="24px" font-style="normal" font-weight="normal" text-decoration="none" x="0" y="240">UNREGISTERED</text><text fill="#eeeeee" stroke="none" font-family="Arial" font-size="24px" font-style="normal" font-weight="normal" text-decoration="none" x="0" y="270">UNREGISTERED</text><text fill="#eeeeee" stroke="none" font-family="Arial" font-size="24px" font-style="normal" font-weight="normal" text-decoration="none" x="0" y="300">UNREGISTERED</text><text fill="#eeeeee" stroke="none" font-family="Arial" font-size="24px" font-style="normal" font-weight="normal" text-decoration="none" x="0" y="330">UNREGISTERED</text><text fill="#eeeeee" stroke="none" font-family="Arial" font-size="24px" font-style="normal" font-weight="normal" text-decoration="none" x="0" y="360">UNREGISTERED</text><text fill="#eeeeee" stroke="none" font-family="Arial" font-size="24px" font-style="normal" font-weight="normal" text-decoration="none" x="0" y="390">UNREGISTERED</text><text fill="#eeeeee" stroke="none" font-family="Arial" font-size="24px" font-style="normal" font-weight="normal" text-decoration="none" x="0" y="420">UNREGISTERED</text><text fill="#eeeeee" stroke="none" font-family="Arial" font-size="24px" font-style="normal" font-weight="normal" text-decoration="none" x="0" y="450">UNREGISTERED</text><text fill="#eeeeee" stroke="none" font-family="Arial" font-size="24px" font-style="normal" font-weight="normal" text-decoration="none" x="0" y="480">UNREGISTERED</text><text fill="#eeeeee" stroke="none" font-family="Arial" font-size="24px" font-style="normal" font-weight="normal" text-decoration="none" x="0" y="510">UNREGISTERED</text><text fill="#eeeeee" stroke="none" font-family="Arial" font-size="24px" font-style="normal" font-weight="normal" text-decoration="none" x="0" y="540">UNREGISTERED</text><text fill="#eeeeee" stroke="none" font-family="Arial" font-size="24px" font-style="normal" font-weight="normal" text-decoration="none" x="0" y="570">UNREGISTERED</text><text fill="#eeeeee" stroke="none" font-family="Arial" font-size="24px" font-style="normal" font-weight="normal" text-decoration="none" x="0" y="600">UNREGISTERED</text><text fill="#eeeeee" stroke="none" font-family="Arial" font-size="24px" font-style="normal" font-weight="normal" text-decoration="none" x="0" y="630">UNREGISTERED</text><text fill="#eeeeee" stroke="none" font-family="Arial" font-size="24px" font-style="normal" font-weight="normal" text-decoration="none" x="0" y="660">UNREGISTERED</text><text fill="#eeeeee" stroke="none" font-family="Arial" font-size="24px" font-style="normal" font-weight="normal" text-decoration="none" x="0" y="690">UNREGISTERED</text><text fill="#eeeeee" stroke="none" font-family="Arial" font-size="24px" font-style="normal" font-weight="normal" text-decoration="none" x="0" y="720">UNREGISTERED</text><text fill="#eeeeee" stroke="none" font-family="Arial" font-size="24px" font-style="normal" font-weight="normal" text-decoration="none" x="0" y="750">UNREGISTERED</text><text fill="#eeeeee" stroke="none" font-family="Arial" font-size="24px" font-style="normal" font-weight="normal" text-decoration="none" x="200" y="0">UNREGISTERED</text><text fill="#eeeeee" stroke="none" font-family="Arial" font-size="24px" font-style="normal" font-weight="normal" text-decoration="none" x="200" y="30">UNREGISTERED</text><text fill="#eeeeee" stroke="none" font-family="Arial" font-size="24px" font-style="normal" font-weight="normal" text-decoration="none" x="200" y="60">UNREGISTERED</text><text fill="#eeeeee" stroke="none" font-family="Arial" font-size="24px" font-style="normal" font-weight="normal" text-decoration="none" x="200" y="90">UNREGISTERED</text><text fill="#eeeeee" stroke="none" font-family="Arial" font-size="24px" font-style="normal" font-weight="normal" text-decoration="none" x="200" y="120">UNREGISTERED</text><text fill="#eeeeee" stroke="none" font-family="Arial" font-size="24px" font-style="normal" font-weight="normal" text-decoration="none" x="200" y="150">UNREGISTERED</text><text fill="#eeeeee" stroke="none" font-family="Arial" font-size="24px" font-style="normal" font-weight="normal" text-decoration="none" x="200" y="180">UNREGISTERED</text><text fill="#eeeeee" stroke="none" font-family="Arial" font-size="24px" font-style="normal" font-weight="normal" text-decoration="none" x="200" y="210">UNREGISTERED</text><text fill="#eeeeee" stroke="none" font-family="Arial" font-size="24px" font-style="normal" font-weight="normal" text-decoration="none" x="200" y="240">UNREGISTERED</text><text fill="#eeeeee" stroke="none" font-family="Arial" font-size="24px" font-style="normal" font-weight="normal" text-decoration="none" x="200" y="270">UNREGISTERED</text><text fill="#eeeeee" stroke="none" font-family="Arial" font-size="24px" font-style="normal" font-weight="normal" text-decoration="none" x="200" y="300">UNREGISTERED</text><text fill="#eeeeee" stroke="none" font-family="Arial" font-size="24px" font-style="normal" font-weight="normal" text-decoration="none" x="200" y="330">UNREGISTERED</text><text fill="#eeeeee" stroke="none" font-family="Arial" font-size="24px" font-style="normal" font-weight="normal" text-decoration="none" x="200" y="360">UNREGISTERED</text><text fill="#eeeeee" stroke="none" font-family="Arial" font-size="24px" font-style="normal" font-weight="normal" text-decoration="none" x="200" y="390">UNREGISTERED</text><text fill="#eeeeee" stroke="none" font-family="Arial" font-size="24px" font-style="normal" font-weight="normal" text-decoration="none" x="200" y="420">UNREGISTERED</text><text fill="#eeeeee" stroke="none" font-family="Arial" font-size="24px" font-style="normal" font-weight="normal" text-decoration="none" x="200" y="450">UNREGISTERED</text><text fill="#eeeeee" stroke="none" font-family="Arial" font-size="24px" font-style="normal" font-weight="normal" text-decoration="none" x="200" y="480">UNREGISTERED</text><text fill="#eeeeee" stroke="none" font-family="Arial" font-size="24px" font-style="normal" font-weight="normal" text-decoration="none" x="200" y="510">UNREGISTERED</text><text fill="#eeeeee" stroke="none" font-family="Arial" font-size="24px" font-style="normal" font-weight="normal" text-decoration="none" x="200" y="540">UNREGISTERED</text><text fill="#eeeeee" stroke="none" font-family="Arial" font-size="24px" font-style="normal" font-weight="normal" text-decoration="none" x="200" y="570">UNREGISTERED</text><text fill="#eeeeee" stroke="none" font-family="Arial" font-size="24px" font-style="normal" font-weight="normal" text-decoration="none" x="200" y="600">UNREGISTERED</text><text fill="#eeeeee" stroke="none" font-family="Arial" font-size="24px" font-style="normal" font-weight="normal" text-decoration="none" x="200" y="630">UNREGISTERED</text><text fill="#eeeeee" stroke="none" font-family="Arial" font-size="24px" font-style="normal" font-weight="normal" text-decoration="none" x="200" y="660">UNREGISTERED</text><text fill="#eeeeee" stroke="none" font-family="Arial" font-size="24px" font-style="normal" font-weight="normal" text-decoration="none" x="200" y="690">UNREGISTERED</text><text fill="#eeeeee" stroke="none" font-family="Arial" font-size="24px" font-style="normal" font-weight="normal" text-decoration="none" x="200" y="720">UNREGISTERED</text><text fill="#eeeeee" stroke="none" font-family="Arial" font-size="24px" font-style="normal" font-weight="normal" text-decoration="none" x="200" y="750">UNREGISTERED</text><text fill="#eeeeee" stroke="none" font-family="Arial" font-size="24px" font-style="normal" font-weight="normal" text-decoration="none" x="400" y="0">UNREGISTERED</text><text fill="#eeeeee" stroke="none" font-family="Arial" font-size="24px" font-style="normal" font-weight="normal" text-decoration="none" x="400" y="30">UNREGISTERED</text><text fill="#eeeeee" stroke="none" font-family="Arial" font-size="24px" font-style="normal" font-weight="normal" text-decoration="none" x="400" y="60">UNREGISTERED</text><text fill="#eeeeee" stroke="none" font-family="Arial" font-size="24px" font-style="normal" font-weight="normal" text-decoration="none" x="400" y="90">UNREGISTERED</text><text fill="#eeeeee" stroke="none" font-family="Arial" font-size="24px" font-style="normal" font-weight="normal" text-decoration="none" x="400" y="120">UNREGISTERED</text><text fill="#eeeeee" stroke="none" font-family="Arial" font-size="24px" font-style="normal" font-weight="normal" text-decoration="none" x="400" y="150">UNREGISTERED</text><text fill="#eeeeee" stroke="none" font-family="Arial" font-size="24px" font-style="normal" font-weight="normal" text-decoration="none" x="400" y="180">UNREGISTERED</text><text fill="#eeeeee" stroke="none" font-family="Arial" font-size="24px" font-style="normal" font-weight="normal" text-decoration="none" x="400" y="210">UNREGISTERED</text><text fill="#eeeeee" stroke="none" font-family="Arial" font-size="24px" font-style="normal" font-weight="normal" text-decoration="none" x="400" y="240">UNREGISTERED</text><text fill="#eeeeee" stroke="none" font-family="Arial" font-size="24px" font-style="normal" font-weight="normal" text-decoration="none" x="400" y="270">UNREGISTERED</text><text fill="#eeeeee" stroke="none" font-family="Arial" font-size="24px" font-style="normal" font-weight="normal" text-decoration="none" x="400" y="300">UNREGISTERED</text><text fill="#eeeeee" stroke="none" font-family="Arial" font-size="24px" font-style="normal" font-weight="normal" text-decoration="none" x="400" y="330">UNREGISTERED</text><text fill="#eeeeee" stroke="none" font-family="Arial" font-size="24px" font-style="normal" font-weight="normal" text-decoration="none" x="400" y="360">UNREGISTERED</text><text fill="#eeeeee" stroke="none" font-family="Arial" font-size="24px" font-style="normal" font-weight="normal" text-decoration="none" x="400" y="390">UNREGISTERED</text><text fill="#eeeeee" stroke="none" font-family="Arial" font-size="24px" font-style="normal" font-weight="normal" text-decoration="none" x="400" y="420">UNREGISTERED</text><text fill="#eeeeee" stroke="none" font-family="Arial" font-size="24px" font-style="normal" font-weight="normal" text-decoration="none" x="400" y="450">UNREGISTERED</text><text fill="#eeeeee" stroke="none" font-family="Arial" font-size="24px" font-style="normal" font-weight="normal" text-decoration="none" x="400" y="480">UNREGISTERED</text><text fill="#eeeeee" stroke="none" font-family="Arial" font-size="24px" font-style="normal" font-weight="normal" text-decoration="none" x="400" y="510">UNREGISTERED</text><text fill="#eeeeee" stroke="none" font-family="Arial" font-size="24px" font-style="normal" font-weight="normal" text-decoration="none" x="400" y="540">UNREGISTERED</text><text fill="#eeeeee" stroke="none" font-family="Arial" font-size="24px" font-style="normal" font-weight="normal" text-decoration="none" x="400" y="570">UNREGISTERED</text><text fill="#eeeeee" stroke="none" font-family="Arial" font-size="24px" font-style="normal" font-weight="normal" text-decoration="none" x="400" y="600">UNREGISTERED</text><text fill="#eeeeee" stroke="none" font-family="Arial" font-size="24px" font-style="normal" font-weight="normal" text-decoration="none" x="400" y="630">UNREGISTERED</text><text fill="#eeeeee" stroke="none" font-family="Arial" font-size="24px" font-style="normal" font-weight="normal" text-decoration="none" x="400" y="660">UNREGISTERED</text><text fill="#eeeeee" stroke="none" font-family="Arial" font-size="24px" font-style="normal" font-weight="normal" text-decoration="none" x="400" y="690">UNREGISTERED</text><text fill="#eeeeee" stroke="none" font-family="Arial" font-size="24px" font-style="normal" font-weight="normal" text-decoration="none" x="400" y="720">UNREGISTERED</text><text fill="#eeeeee" stroke="none" font-family="Arial" font-size="24px" font-style="normal" font-weight="normal" text-decoration="none" x="400" y="750">UNREGISTERED</text><text fill="#eeeeee" stroke="none" font-family="Arial" font-size="24px" font-style="normal" font-weight="normal" text-decoration="none" x="600" y="0">UNREGISTERED</text><text fill="#eeeeee" stroke="none" font-family="Arial" font-size="24px" font-style="normal" font-weight="normal" text-decoration="none" x="600" y="30">UNREGISTERED</text><text fill="#eeeeee" stroke="none" font-family="Arial" font-size="24px" font-style="normal" font-weight="normal" text-decoration="none" x="600" y="60">UNREGISTERED</text><text fill="#eeeeee" stroke="none" font-family="Arial" font-size="24px" font-style="normal" font-weight="normal" text-decoration="none" x="600" y="90">UNREGISTERED</text><text fill="#eeeeee" stroke="none" font-family="Arial" font-size="24px" font-style="normal" font-weight="normal" text-decoration="none" x="600" y="120">UNREGISTERED</text><text fill="#eeeeee" stroke="none" font-family="Arial" font-size="24px" font-style="normal" font-weight="normal" text-decoration="none" x="600" y="150">UNREGISTERED</text><text fill="#eeeeee" stroke="none" font-family="Arial" font-size="24px" font-style="normal" font-weight="normal" text-decoration="none" x="600" y="180">UNREGISTERED</text><text fill="#eeeeee" stroke="none" font-family="Arial" font-size="24px" font-style="normal" font-weight="normal" text-decoration="none" x="600" y="210">UNREGISTERED</text><text fill="#eeeeee" stroke="none" font-family="Arial" font-size="24px" font-style="normal" font-weight="normal" text-decoration="none" x="600" y="240">UNREGISTERED</text><text fill="#eeeeee" stroke="none" font-family="Arial" font-size="24px" font-style="normal" font-weight="normal" text-decoration="none" x="600" y="270">UNREGISTERED</text><text fill="#eeeeee" stroke="none" font-family="Arial" font-size="24px" font-style="normal" font-weight="normal" text-decoration="none" x="600" y="300">UNREGISTERED</text><text fill="#eeeeee" stroke="none" font-family="Arial" font-size="24px" font-style="normal" font-weight="normal" text-decoration="none" x="600" y="330">UNREGISTERED</text><text fill="#eeeeee" stroke="none" font-family="Arial" font-size="24px" font-style="normal" font-weight="normal" text-decoration="none" x="600" y="360">UNREGISTERED</text><text fill="#eeeeee" stroke="none" font-family="Arial" font-size="24px" font-style="normal" font-weight="normal" text-decoration="none" x="600" y="390">UNREGISTERED</text><text fill="#eeeeee" stroke="none" font-family="Arial" font-size="24px" font-style="normal" font-weight="normal" text-decoration="none" x="600" y="420">UNREGISTERED</text><text fill="#eeeeee" stroke="none" font-family="Arial" font-size="24px" font-style="normal" font-weight="normal" text-decoration="none" x="600" y="450">UNREGISTERED</text><text fill="#eeeeee" stroke="none" font-family="Arial" font-size="24px" font-style="normal" font-weight="normal" text-decoration="none" x="600" y="480">UNREGISTERED</text><text fill="#eeeeee" stroke="none" font-family="Arial" font-size="24px" font-style="normal" font-weight="normal" text-decoration="none" x="600" y="510">UNREGISTERED</text><text fill="#eeeeee" stroke="none" font-family="Arial" font-size="24px" font-style="normal" font-weight="normal" text-decoration="none" x="600" y="540">UNREGISTERED</text><text fill="#eeeeee" stroke="none" font-family="Arial" font-size="24px" font-style="normal" font-weight="normal" text-decoration="none" x="600" y="570">UNREGISTERED</text><text fill="#eeeeee" stroke="none" font-family="Arial" font-size="24px" font-style="normal" font-weight="normal" text-decoration="none" x="600" y="600">UNREGISTERED</text><text fill="#eeeeee" stroke="none" font-family="Arial" font-size="24px" font-style="normal" font-weight="normal" text-decoration="none" x="600" y="630">UNREGISTERED</text><text fill="#eeeeee" stroke="none" font-family="Arial" font-size="24px" font-style="normal" font-weight="normal" text-decoration="none" x="600" y="660">UNREGISTERED</text><text fill="#eeeeee" stroke="none" font-family="Arial" font-size="24px" font-style="normal" font-weight="normal" text-decoration="none" x="600" y="690">UNREGISTERED</text><text fill="#eeeeee" stroke="none" font-family="Arial" font-size="24px" font-style="normal" font-weight="normal" text-decoration="none" x="600" y="720">UNREGISTERED</text><text fill="#eeeeee" stroke="none" font-family="Arial" font-size="24px" font-style="normal" font-weight="normal" text-decoration="none" x="600" y="750">UNREGISTERED</text><g transform="translate(-308,-62) scale(1,1)"><path fill="#ffffff" stroke="none" d="M 952 72 L 1010 72 L 1020 82 L 1020 110 L 952 110 L 952 72"/></g><g transform="translate(-308,-62) scale(1,1)"><path fill="none" stroke="#000000" d="M 952 72 L 1010 72 L 1020 82 L 1020 110 L 952 110 L 952 72 L 952 72" stroke-miterlimit="10"/></g><g transform="translate(-308,-62) scale(1,1)"><path fill="none" stroke="#000000" d="M 1010 72 L 1010 82 L 1020 82 L 1010 72" stroke-miterlimit="10"/></g><g transform="translate(-308,-62) scale(1,1)"><g><path fill="none" stroke="none"/><text fill="#000000" stroke="none" font-family="Arial" font-size="13px" font-style="normal" font-weight="normal" text-decoration="none" x="957" y="90">Estado</text><text fill="#000000" stroke="none" font-family="Arial" font-size="13px" font-style="normal" font-weight="normal" text-decoration="none" x="957" y="103">Inicial</text></g></g><g transform="translate(-308,-62) scale(1,1)"><path fill="#C0C0C0" stroke="none" d="M 687 120.5 C 687 115.2532944 691.2532944 111 696.5 111 C 701.7467056 111 706 115.2532944 706 120.5 C 706 125.7467056 701.7467056 130 696.5 130 C 691.2532944 130 687 125.7467056 687 120.5 Z" opacity="0.2"/></g><g transform="translate(-308,-62) scale(1,1)"><path fill="#000000" stroke="none" d="M 680 113.5 C 680 108.2532944 684.2532944 104 689.5 104 C 694.7467056 104 699 108.2532944 699 113.5 C 699 118.7467056 694.7467056 123 689.5 123 C 684.2532944 123 680 118.7467056 680 113.5 Z"/></g><g transform="translate(-308,-62) scale(1,1)"><path fill="#C0C0C0" stroke="none" d="M 345 247 L 427.24072265625 247 Q 437.24072265625 247 437.24072265625 257 L 437.24072265625 285 Q 437.24072265625 295 427.24072265625 295 L 345 295 Q 335 295 335 285 L 335 257 Q 335 247 345 247 Z" opacity="0.2"/></g><g transform="translate(-308,-62) scale(1,1)"><path fill="#ffffff" stroke="none" d="M 338 240 L 420.24072265625 240 Q 430.24072265625 240 430.24072265625 250 L 430.24072265625 278 Q 430.24072265625 288 420.24072265625 288 L 338 288 Q 328 288 328 278 L 328 250 Q 328 240 338 240 Z"/></g><g transform="translate(-308,-62) scale(1,1)"><path fill="none" stroke="#000000" d="M 338 240 L 420.24072265625 240 Q 430.24072265625 240 430.24072265625 250 L 430.24072265625 278 Q 430.24072265625 288 420.24072265625 288 L 338 288 Q 328 288 328 278 L 328 250 Q 328 240 338 240 Z" stroke-miterlimit="10"/></g><g transform="translate(-308,-62) scale(1,1)"><path fill="none" stroke="#000000" d="M 328 265 L 430.24072265625 265" stroke-miterlimit="10"/></g><g transform="translate(-308,-62) scale(1,1)"><g><path fill="none" stroke="none"/><text fill="#000000" stroke="none" font-family="Arial" font-size="13px" font-style="normal" font-weight="bold" text-decoration="none" x="337.5654296875" y="259.5">Receber Agua</text></g></g><g transform="translate(-308,-62) scale(1,1)"><g><path fill="none" stroke="none"/><text fill="#000000" stroke="none" font-family="Arial" font-size="13px" font-style="normal" font-weight="normal" text-decoration="none" x="333" y="282.5">do/recebeAgua</text></g></g><g transform="translate(-308,-62) scale(1,1)"><path fill="none" stroke="#000000" d="M 679 118 L 430 239" stroke-miterlimit="10"/></g><g transform="translate(-308,-62) scale(1,1)"><path fill="none" stroke="#000000" d="M 437.3007264267811 230.77203587505997 L 430 239 L 440.98044239206945 238.34434393586002" stroke-miterlimit="10"/></g><g transform="translate(-308,-62) scale(1,1)"><g><path fill="none" stroke="none"/><text fill="#000000" stroke="none" font-family="Arial" font-size="13px" font-style="normal" font-weight="normal" text-decoration="none" x="437.5" y="172.5">Recebe agua</text></g></g><g transform="translate(-308,-62) scale(1,1)"><path fill="#C0C0C0" stroke="none" d="M 489 263 L 587.8271484375 263 Q 597.8271484375 263 597.8271484375 273 L 597.8271484375 301 Q 597.8271484375 311 587.8271484375 311 L 489 311 Q 479 311 479 301 L 479 273 Q 479 263 489 263 Z" opacity="0.2"/></g><g transform="translate(-308,-62) scale(1,1)"><path fill="#ffffff" stroke="none" d="M 482 256 L 580.8271484375 256 Q 590.8271484375 256 590.8271484375 266 L 590.8271484375 294 Q 590.8271484375 304 580.8271484375 304 L 482 304 Q 472 304 472 294 L 472 266 Q 472 256 482 256 Z"/></g><g transform="translate(-308,-62) scale(1,1)"><path fill="none" stroke="#000000" d="M 482 256 L 580.8271484375 256 Q 590.8271484375 256 590.8271484375 266 L 590.8271484375 294 Q 590.8271484375 304 580.8271484375 304 L 482 304 Q 472 304 472 294 L 472 266 Q 472 256 482 256 Z" stroke-miterlimit="10"/></g><g transform="translate(-308,-62) scale(1,1)"><path fill="none" stroke="#000000" d="M 472 281 L 590.8271484375 281" stroke-miterlimit="10"/></g><g transform="translate(-308,-62) scale(1,1)"><g><path fill="none" stroke="none"/><text fill="#000000" stroke="none" font-family="Arial" font-size="13px" font-style="normal" font-weight="bold" text-decoration="none" x="483.72998046875" y="275.5">Receber mistura</text></g></g><g transform="translate(-308,-62) scale(1,1)"><g><path fill="none" stroke="none"/><text fill="#000000" stroke="none" font-family="Arial" font-size="13px" font-style="normal" font-weight="normal" text-decoration="none" x="477" y="298.5">do/receberMistura</text></g></g><g transform="translate(-308,-62) scale(1,1)"><path fill="none" stroke="#000000" d="M 679 124 L 555 255" stroke-miterlimit="10"/></g><g transform="translate(-308,-62) scale(1,1)"><path fill="none" stroke="#000000" d="M 558.9290622616925 244.72564017839827 L 555 255 L 565.0433360711521 250.51319706674172" stroke-miterlimit="10"/></g><g transform="translate(-308,-62) scale(1,1)"><g><path fill="none" stroke="none"/><text fill="#000000" stroke="none" font-family="Arial" font-size="13px" font-style="normal" font-weight="normal" text-decoration="none" x="548.5" y="221.5">receber</text></g></g><g transform="translate(-308,-62) scale(1,1)"><path fill="none" stroke="#000000" d="M 951 94 L 700 112" stroke-miterlimit="10" stroke-dasharray="6,4"/></g><g transform="translate(-308,-62) scale(1,1)"><path fill="#C0C0C0" stroke="none" d="M 385 399 L 498.2998046875 399 Q 508.2998046875 399 508.2998046875 409 L 508.2998046875 437 Q 508.2998046875 447 498.2998046875 447 L 385 447 Q 375 447 375 437 L 375 409 Q 375 399 385 399 Z" opacity="0.2"/></g><g transform="translate(-308,-62) scale(1,1)"><path fill="#ffffff" stroke="none" d="M 378 392 L 491.2998046875 392 Q 501.2998046875 392 501.2998046875 402 L 501.2998046875 430 Q 501.2998046875 440 491.2998046875 440 L 378 440 Q 368 440 368 430 L 368 402 Q 368 392 378 392 Z"/></g><g transform="translate(-308,-62) scale(1,1)"><path fill="none" stroke="#000000" d="M 378 392 L 491.2998046875 392 Q 501.2998046875 392 501.2998046875 402 L 501.2998046875 430 Q 501.2998046875 440 491.2998046875 440 L 378 440 Q 368 440 368 430 L 368 402 Q 368 392 378 392 Z" stroke-miterlimit="10"/></g><g transform="translate(-308,-62) scale(1,1)"><path fill="none" stroke="#000000" d="M 368 417 L 501.2998046875 417" stroke-miterlimit="10"/></g><g transform="translate(-308,-62) scale(1,1)"><g><path fill="none" stroke="none"/><text fill="#000000" stroke="none" font-family="Arial" font-size="13px" font-style="normal" font-weight="bold" text-decoration="none" x="379.009521484375" y="411.5">Processa Lavagem</text></g></g><g transform="translate(-308,-62) scale(1,1)"><g><path fill="none" stroke="none"/><text fill="#000000" stroke="none" font-family="Arial" font-size="13px" font-style="normal" font-weight="normal" text-decoration="none" x="373" y="434.5">do/processaLavagem</text></g></g><g transform="translate(-308,-62) scale(1,1)"><path fill="#C0C0C0" stroke="none" d="M 401 503 L 473.0908203125 503 Q 483.0908203125 503 483.0908203125 513 L 483.0908203125 541 Q 483.0908203125 551 473.0908203125 551 L 401 551 Q 391 551 391 541 L 391 513 Q 391 503 401 503 Z" opacity="0.2"/></g><g transform="translate(-308,-62) scale(1,1)"><path fill="#ffffff" stroke="none" d="M 394 496 L 466.0908203125 496 Q 476.0908203125 496 476.0908203125 506 L 476.0908203125 534 Q 476.0908203125 544 466.0908203125 544 L 394 544 Q 384 544 384 534 L 384 506 Q 384 496 394 496 Z"/></g><g transform="translate(-308,-62) scale(1,1)"><path fill="none" stroke="#000000" d="M 394 496 L 466.0908203125 496 Q 476.0908203125 496 476.0908203125 506 L 476.0908203125 534 Q 476.0908203125 544 466.0908203125 544 L 394 544 Q 384 544 384 534 L 384 506 Q 384 496 394 496 Z" stroke-miterlimit="10"/></g><g transform="translate(-308,-62) scale(1,1)"><path fill="none" stroke="#000000" d="M 384 521 L 476.0908203125 521" stroke-miterlimit="10"/></g><g transform="translate(-308,-62) scale(1,1)"><g><path fill="none" stroke="none"/><text fill="#000000" stroke="none" font-family="Arial" font-size="13px" font-style="normal" font-weight="bold" text-decoration="none" x="399.697265625" y="515.5">Emulsiona</text></g></g><g transform="translate(-308,-62) scale(1,1)"><g><path fill="none" stroke="none"/><text fill="#000000" stroke="none" font-family="Arial" font-size="13px" font-style="normal" font-weight="normal" text-decoration="none" x="389" y="538.5">do/emulsiona</text></g></g><g transform="translate(-308,-62) scale(1,1)"><path fill="#C0C0C0" stroke="none" d="M 361 655 L 493.3173828125 655 Q 503.3173828125 655 503.3173828125 665 L 503.3173828125 701 Q 503.3173828125 711 493.3173828125 711 L 361 711 Q 351 711 351 701 L 351 665 Q 351 655 361 655 Z" opacity="0.2"/></g><g transform="translate(-308,-62) scale(1,1)"><path fill="#ffffff" stroke="none" d="M 354 648 L 486.3173828125 648 Q 496.3173828125 648 496.3173828125 658 L 496.3173828125 694 Q 496.3173828125 704 486.3173828125 704 L 354 704 Q 344 704 344 694 L 344 658 Q 344 648 354 648 Z"/></g><g transform="translate(-308,-62) scale(1,1)"><path fill="none" stroke="#000000" d="M 354 648 L 486.3173828125 648 Q 496.3173828125 648 496.3173828125 658 L 496.3173828125 694 Q 496.3173828125 704 486.3173828125 704 L 354 704 Q 344 704 344 694 L 344 658 Q 344 648 354 648 Z" stroke-miterlimit="10"/></g><g transform="translate(-308,-62) scale(1,1)"><path fill="none" stroke="#000000" d="M 344 673 L 496.3173828125 673" stroke-miterlimit="10"/></g><g transform="translate(-308,-62) scale(1,1)"><g><path fill="none" stroke="none"/><text fill="#000000" stroke="none" font-family="Arial" font-size="13px" font-style="normal" font-weight="bold" text-decoration="none" x="355.72998046875" y="667.5">Transferir ParaTanque</text></g></g><g transform="translate(-308,-62) scale(1,1)"><g><path fill="none" stroke="none"/><text fill="#000000" stroke="none" font-family="Arial" font-size="13px" font-style="normal" font-weight="normal" text-decoration="none" x="349" y="690.5">do/TransferirParaTanque</text></g></g><g transform="translate(-308,-62) scale(1,1)"><path fill="none" stroke="#000000" d="M 388 289 L 425 391" stroke-miterlimit="10"/></g><g transform="translate(-308,-62) scale(1,1)"><path fill="none" stroke="#000000" d="M 417.57728915461985 382.88191132680384 L 425 391 L 425.4917063775355 380.01099527535405" stroke-miterlimit="10"/></g><g transform="translate(-308,-62) scale(1,1)"><g><path fill="none" stroke="none"/><text fill="#000000" stroke="none" font-family="Arial" font-size="13px" font-style="normal" font-weight="normal" text-decoration="none" x="317.5" y="355.5">processa</text></g></g><g transform="translate(-308,-62) scale(1,1)"><path fill="none" stroke="#000000" d="M 513 305 L 452 391" stroke-miterlimit="10"/></g><g transform="translate(-308,-62) scale(1,1)"><path fill="none" stroke="#000000" d="M 454.4460501204969 380.2754096205022 L 452 391 L 461.31304921011645 385.14618804453465" stroke-miterlimit="10"/></g><g transform="translate(-308,-62) scale(1,1)"><g><path fill="none" stroke="none"/><text fill="#000000" stroke="none" font-family="Arial" font-size="13px" font-style="normal" font-weight="normal" text-decoration="none" x="501.5" y="372.5">processa</text></g></g><g transform="translate(-308,-62) scale(1,1)"><path fill="none" stroke="#000000" d="M 433 441 L 431 495" stroke-miterlimit="10"/></g><g transform="translate(-308,-62) scale(1,1)"><path fill="none" stroke="#000000" d="M 427.1695039351113 484.6884870219316 L 431 495 L 435.58277100829406 485.0000895061236" stroke-miterlimit="10"/></g><g transform="translate(-308,-62) scale(1,1)"><g><path fill="none" stroke="none"/><text fill="#000000" stroke="none" font-family="Arial" font-size="13px" font-style="normal" font-weight="normal" text-decoration="none" x="446.5" y="484.5">emulsiona</text></g></g><g transform="translate(-308,-62) scale(1,1)"><path fill="none" stroke="#000000" d="M 428 545 L 422 647" stroke-miterlimit="10"/></g><g transform="translate(-308,-62) scale(1,1)"><path fill="none" stroke="#000000" d="M 418.3945191168192 636.60767073265 L 422 647 L 426.7990265153309 637.1020535207979" stroke-miterlimit="10"/></g><g transform="translate(-308,-62) scale(1,1)"><g><path fill="none" stroke="none"/><text fill="#000000" stroke="none" font-family="Arial" font-size="13px" font-style="normal" font-weight="normal" text-decoration="none" x="438.5" y="602.5">transfere</text></g></g><g transform="translate(-308,-62) scale(1,1)"><path fill="#C0C0C0" stroke="none" d="M 415 819.5 C 415 812.59644 420.59644 807 427.5 807 C 434.40356 807 440 812.59644 440 819.5 C 440 826.40356 434.40356 832 427.5 832 C 420.59644 832 415 826.40356 415 819.5 Z" opacity="0.2"/></g><g transform="translate(-308,-62) scale(1,1)"><path fill="none" stroke="#000000" d="M 408 812.5 C 408 805.59644 413.59644 800 420.5 800 C 427.40356 800 433 805.59644 433 812.5 C 433 819.40356 427.40356 825 420.5 825 C 413.59644 825 408 819.40356 408 812.5 Z" stroke-miterlimit="10"/></g><g transform="translate(-308,-62) scale(1,1)"><path fill="#000000" stroke="none" d="M 413 812.5 C 413 808.357864 416.357864 805 420.5 805 C 424.642136 805 428 808.357864 428 812.5 C 428 816.642136 424.642136 820 420.5 820 C 416.357864 820 413 816.642136 413 812.5 Z"/></g><g transform="translate(-308,-62) scale(1,1)"><path fill="none" stroke="#000000" d="M 420 705 L 420 799" stroke-miterlimit="10"/></g><g transform="translate(-308,-62) scale(1,1)"><path fill="none" stroke="#000000" d="M 415.790482243984 788.8373251423759 L 420 799 L 424.209517756016 788.8373251423759" stroke-miterlimit="10"/></g></g></svg>